<?xml version='1.0' encoding='utf-8'?>
<svg xmlns="http://www.w3.org/2000/svg" enable-background="new 0 0 766.354 511.236" viewBox="0 0 766.35 511.24"> <path d="m0.5 0.5h765.35v510.24h-765.35z" fill="#233e90" stroke="#010101"/> <path d="m553.256,265.4-14.938,10.676 5.539-17.505-14.769-10.906 18.359-.143 5.809-17.416 5.808,17.416 18.36.143-14.77,10.906 5.538,17.505z" fill="#ffcd05" stroke="#010101"/> <path d="m298.5,118.391-14.938,10.675 5.54-17.505-14.77-10.907 18.359-.142 5.809-17.416 5.809,17.416 18.359.142-14.77,10.907 5.54,17.505z" fill="#ffcd05" stroke="#010101"/> <path d="m236.366,180.524-14.937,10.676 5.539-17.505-14.77-10.906 18.36-.143 5.808-17.416 5.808,17.416 18.359.143-14.769,10.906 5.539,17.505z" fill="#ffcd05" stroke="#010101"/> <path d="m213.743,265.4-14.937,10.676 5.539-17.506-14.77-10.906 18.36-.143 5.808-17.416 5.808,17.416 18.359.143-14.769,10.906 5.539,17.506z" fill="#ffcd05" stroke="#010101"/> <path d="m236.5,350.281-14.938,10.676 5.54-17.506-14.77-10.906 18.359-.143 5.809-17.415 5.808,17.415 18.359.143-14.77,10.906 5.54,17.506z" fill="#ffcd05" stroke="#010101"/> <path d="m298.633,412.415-14.938,10.676 5.539-17.506-14.769-10.906 18.359-.143 5.809-17.415 5.808,17.415 18.36.143-14.77,10.906 5.539,17.506z" fill="#ffcd05" stroke="#010101"/> <path d="m383.5 435.16-14.937 10.676 5.539-17.506-14.77-10.906 18.359-0.143 5.809-17.415 5.808 17.415 18.359 0.143-14.77 10.906 5.54 17.506z" fill="#ffcd05" stroke="#010101"/> <path d="m468.5 412.42-14.937 10.676 5.539-17.506-14.77-10.906 18.359-0.143 5.809-17.415 5.808 17.415 18.359 0.143-14.77 10.906 5.54 17.506z" fill="#ffcd05" stroke="#010101"/> <path d="m530.634,350.281-14.938,10.676 5.539-17.506-14.769-10.906 18.359-.143 5.809-17.415 5.807,17.415 18.36.143-14.77,10.906 5.539,17.506z" fill="#ffcd05" stroke="#010101"/> <path d="m530.513,180.525-14.938,10.676 5.539-17.505-14.769-10.906 18.359-.143 5.809-17.416 5.808,17.416 18.36.143-14.77,10.906 5.538,17.505z" fill="#ffcd05" stroke="#010101"/> <path d="m383.5,95.645-14.938,10.675 5.54-17.506-14.77-10.906 18.359-.142 5.809-17.416 5.809,17.416 18.359.142-14.77,10.906 5.539,17.506z" fill="#ffcd05" stroke="#010101"/> <path d="m468.65,118.391-14.937,10.675 5.539-17.504-14.77-10.907 18.36-.142 5.808-17.416 5.809,17.416 18.359.142-14.769,10.907 5.538,17.504z" fill="#ffcd05" stroke="#010101"/> </svg>