<svg xmlns="http://www.w3.org/2000/svg" viewBox="0 0 1024 1024" version="1.1">
<g id="Parent-Group"><g id="Group-rgba(0,0,0,0)" fill="rgba(0,0,0,0)">
<path fill="rgba(0,0,0,0)" opacity="1.00" d=" M 0.00 0.00 L 1024.00 0.00 L 1024.00 586.37 C 1015.13 582.92 1008.75 574.92 1005.93 566.00 C 1001.06 551.16 1002.74 535.30 1003.11 519.97 C 1003.88 502.31 1003.14 484.12 996.57 467.49 C 986.65 442.10 964.27 422.87 938.79 414.09 C 920.64 407.56 900.35 407.26 882.07 413.44 C 853.84 422.94 829.32 444.59 818.36 472.51 C 814.37 482.79 812.61 494.00 813.91 504.98 C 814.12 507.22 815.06 509.29 816.13 511.24 C 819.11 508.63 820.34 504.72 822.89 501.76 C 822.48 506.33 821.12 510.72 820.27 515.20 C 818.29 525.24 816.51 535.33 815.32 545.50 C 814.91 551.22 808.15 552.75 805.31 557.06 C 807.47 559.59 810.76 560.12 813.87 560.62 C 810.30 576.71 814.07 594.08 823.09 607.76 C 829.61 617.77 840.27 624.45 851.66 627.59 C 852.20 635.57 853.31 644.02 858.33 650.57 C 863.09 657.24 871.24 660.83 879.32 661.00 C 867.53 670.92 862.18 686.12 858.41 700.59 C 850.62 732.23 850.08 765.02 845.71 797.20 C 833.67 795.94 820.15 797.80 811.41 806.96 C 804.81 805.96 798.21 803.73 791.48 804.68 C 786.90 804.98 786.45 811.65 789.61 814.05 C 790.37 814.68 791.14 815.31 791.93 815.95 C 789.48 815.97 787.04 816.01 784.61 816.10 C 785.14 813.38 785.75 810.68 786.20 807.95 C 788.31 792.03 787.04 775.89 785.75 759.96 C 784.38 745.83 782.31 731.79 779.74 717.84 C 781.49 716.32 783.85 714.71 783.57 712.06 C 780.04 686.65 777.01 660.30 764.56 637.39 C 751.50 613.06 727.97 595.53 702.10 586.74 C 696.33 584.64 690.26 583.57 684.39 581.77 C 680.91 574.36 679.74 566.12 679.94 558.00 C 680.14 545.18 680.88 532.31 682.96 519.65 C 683.03 519.29 683.17 518.58 683.23 518.23 C 690.90 517.93 697.89 512.79 700.49 505.57 C 702.14 500.09 707.09 496.84 710.51 492.55 C 718.53 482.96 725.95 472.31 728.93 459.99 C 731.09 451.48 730.27 442.05 725.61 434.49 C 732.07 432.54 738.60 429.17 741.96 423.03 C 750.37 408.39 741.18 387.42 725.01 383.07 C 715.97 380.53 706.58 383.24 698.02 386.28 C 696.76 375.98 691.18 366.21 682.57 360.32 C 674.10 354.31 662.97 352.94 653.00 355.28 C 647.21 356.45 642.04 359.34 636.79 361.86 C 632.96 357.49 629.28 352.88 624.31 349.71 C 611.98 341.31 595.39 340.19 581.72 345.89 C 570.69 350.47 561.81 360.24 558.96 371.93 C 553.87 390.81 561.37 412.36 577.44 423.62 C 570.94 440.74 566.85 458.62 563.31 476.55 C 559.96 492.26 557.08 508.06 554.47 523.91 C 553.65 530.59 551.77 537.74 554.61 544.21 C 557.69 551.29 564.83 555.19 571.32 558.65 C 585.78 565.83 601.47 570.91 617.59 572.42 C 617.24 575.27 616.93 578.14 616.66 581.02 C 596.99 581.79 577.01 586.43 560.40 597.37 C 547.28 605.66 536.58 617.44 528.62 630.70 C 523.17 639.70 519.46 649.58 515.05 659.10 C 510.86 668.19 506.63 677.27 502.25 686.27 C 499.71 691.81 496.50 697.11 494.84 703.02 C 493.96 705.60 495.00 708.18 496.46 710.32 C 487.15 729.19 479.02 748.63 470.55 767.89 C 469.11 771.09 467.83 774.36 466.74 777.70 C 465.64 773.44 463.84 769.37 463.13 765.01 C 462.23 757.14 463.41 749.17 462.56 741.32 C 461.96 738.35 458.49 738.01 456.03 737.93 C 450.01 737.75 443.97 737.39 437.96 737.85 C 435.24 737.95 432.19 739.47 431.69 742.39 C 430.23 751.55 432.66 761.27 429.19 770.12 C 425.72 779.49 422.95 789.20 422.00 799.18 C 415.38 798.95 408.75 798.74 402.13 798.86 C 398.33 778.46 394.33 758.10 390.45 737.72 C 395.05 735.00 401.99 735.82 405.17 730.97 C 405.36 725.51 403.41 720.27 402.18 715.01 C 396.91 694.91 392.06 674.64 385.11 655.02 C 379.15 638.02 369.98 621.71 356.40 609.63 C 342.52 596.99 324.50 589.22 305.89 587.16 C 304.87 578.16 304.25 569.12 303.80 560.08 C 317.70 557.92 332.56 552.95 341.45 541.41 C 347.49 533.61 346.88 523.32 347.09 514.02 C 347.06 491.04 345.80 468.05 343.38 445.20 C 342.08 433.11 339.06 421.30 335.31 409.75 C 341.83 409.40 348.98 408.66 354.01 404.02 C 359.14 399.17 362.62 392.66 364.45 385.88 C 365.71 381.25 364.79 376.10 361.59 372.45 C 354.15 363.54 343.96 357.55 334.11 351.68 C 316.51 341.81 297.45 333.15 277.01 332.01 C 266.35 331.54 255.36 333.55 246.11 339.06 C 238.11 343.75 231.57 350.42 224.93 356.79 C 227.47 349.75 230.73 343.00 233.44 336.04 C 234.58 334.47 231.32 332.43 230.71 334.70 C 226.88 340.92 224.95 348.07 221.60 354.54 C 220.18 351.41 218.88 348.21 217.22 345.20 C 216.63 345.67 215.44 346.61 214.85 347.08 C 215.90 351.40 218.04 355.36 219.54 359.52 C 207.94 363.17 195.61 368.03 188.56 378.55 C 180.75 390.43 180.14 405.39 181.31 419.14 C 183.27 441.21 191.93 462.03 202.85 481.08 C 206.57 487.75 210.45 494.33 214.26 500.95 C 193.62 492.71 171.23 488.54 149.00 489.84 C 133.01 491.69 117.62 498.11 104.79 507.79 C 94.62 515.44 86.43 525.80 81.75 537.67 C 73.60 557.47 74.73 579.68 66.66 599.50 C 60.27 614.63 48.11 626.50 35.04 636.04 C 23.78 644.47 10.96 650.59 0.00 659.43 L 0.00 0.00 Z" />
<path fill="rgba(0,0,0,0)" opacity="1.00" d=" M 261.66 411.58 C 278.76 411.19 295.84 410.24 312.95 410.27 C 319.02 410.08 325.11 410.41 331.17 409.87 C 334.52 418.65 337.15 427.75 338.61 437.04 C 336.46 436.10 334.37 434.94 332.05 434.50 C 330.58 434.65 329.90 435.44 330.02 436.88 C 332.48 439.64 337.34 439.28 339.36 442.46 C 340.60 450.22 340.86 458.14 341.73 465.97 C 342.70 486.64 344.53 507.39 342.88 528.08 C 342.17 536.88 335.88 544.22 328.40 548.37 C 312.55 557.38 293.23 559.58 275.55 555.67 C 274.48 555.66 272.62 554.52 272.15 556.00 C 270.65 557.42 272.99 558.52 274.11 558.84 C 282.59 561.28 291.59 561.02 300.32 560.55 C 301.12 576.59 302.63 592.64 305.89 608.39 C 291.73 611.13 277.16 610.62 262.92 608.79 C 261.52 595.43 259.65 582.11 257.01 568.93 C 264.81 564.43 267.92 554.17 265.25 545.79 C 260.98 531.43 249.32 520.73 237.20 512.69 C 236.41 505.25 236.02 497.75 235.66 490.27 C 237.91 490.08 241.16 489.95 240.19 486.67 C 235.10 486.86 229.57 487.89 224.93 485.16 C 220.01 481.90 218.41 475.64 218.36 470.06 C 218.42 464.44 219.68 458.66 222.75 453.89 C 226.37 448.31 234.75 445.58 240.44 449.64 C 244.70 452.31 246.09 457.39 247.59 461.86 C 247.85 461.85 248.35 461.81 248.61 461.80 C 254.90 456.02 262.05 449.98 263.80 441.16 C 265.60 431.30 263.40 421.29 261.66 411.58 M 299.47 436.50 C 294.18 438.42 288.80 440.23 283.76 442.75 C 281.33 443.70 283.79 447.33 285.74 445.77 C 291.01 443.58 296.47 441.83 301.62 439.39 C 303.99 438.39 301.20 435.17 299.47 436.50 M 315.24 452.26 C 315.47 456.24 316.68 460.08 317.49 463.97 C 319.44 472.98 321.49 482.11 325.69 490.38 C 327.06 492.78 328.93 495.54 331.88 495.97 C 333.59 496.23 334.71 495.52 335.26 493.83 C 333.01 492.55 330.23 491.62 329.16 489.03 C 323.27 477.66 321.68 464.76 318.49 452.53 C 318.25 450.73 315.90 450.80 315.24 452.26 M 331.20 451.26 C 326.91 453.37 328.24 459.97 331.62 462.35 C 333.80 464.25 337.40 463.04 338.40 460.47 C 339.83 456.16 336.41 449.55 331.20 451.26 M 294.38 454.34 C 289.43 457.20 292.69 465.42 298.04 465.23 C 301.76 465.72 304.89 461.51 303.52 458.06 C 302.58 454.22 297.73 452.29 294.38 454.34 M 229.48 463.57 C 227.69 466.95 226.49 470.91 227.23 474.75 C 227.94 474.82 229.36 474.95 230.07 475.02 C 230.89 470.92 230.91 465.72 235.07 463.45 C 238.70 466.66 238.72 471.88 240.01 476.22 C 240.83 476.19 242.48 476.12 243.30 476.09 C 243.21 471.36 241.90 466.53 239.41 462.50 C 237.01 458.85 231.35 459.99 229.48 463.57 M 292.08 512.90 C 293.74 516.84 297.48 519.30 301.16 521.14 C 301.79 520.26 302.41 519.38 303.03 518.50 C 300.20 516.26 296.33 514.74 295.10 511.05 C 294.58 508.77 296.69 506.62 298.98 507.01 C 304.45 507.43 309.39 510.70 315.00 510.35 C 316.81 510.76 317.71 509.38 318.42 507.98 C 315.22 506.49 311.57 506.88 308.27 505.72 C 304.33 504.72 300.24 502.61 296.12 503.81 C 292.42 504.87 290.65 509.46 292.08 512.90 Z" />
<path fill="rgba(0,0,0,0)" opacity="1.00" d=" M 638.04 419.83 C 642.73 416.07 647.72 411.89 653.92 411.16 C 660.89 410.43 667.04 416.40 668.22 423.00 C 670.36 434.85 663.24 446.37 665.85 458.21 C 666.76 462.63 669.75 466.06 672.66 469.32 C 674.01 478.04 670.40 486.48 669.07 494.99 C 669.89 495.48 670.73 495.93 671.61 496.36 C 673.21 492.31 673.80 487.84 676.13 484.10 C 679.28 479.63 684.93 475.89 690.59 477.65 C 695.69 479.42 698.32 484.88 699.00 489.92 C 700.28 497.92 698.02 507.21 691.05 512.00 C 686.53 515.14 680.76 514.41 675.58 514.72 C 675.11 517.50 677.54 518.06 679.69 518.27 C 679.58 518.74 679.37 519.67 679.26 520.14 C 677.94 526.66 677.70 533.34 677.10 539.95 C 676.65 550.35 675.63 560.86 677.31 571.20 C 678.66 581.01 685.97 588.99 686.17 599.10 C 687.16 607.18 681.81 614.13 675.98 619.04 C 665.24 628.15 651.56 635.10 637.15 634.33 C 627.84 634.05 618.54 629.46 613.42 621.55 C 610.86 618.04 609.73 613.82 608.64 609.69 C 608.48 605.11 608.87 600.31 611.29 596.31 C 613.35 592.49 616.62 589.53 619.00 585.93 C 620.49 581.72 620.36 577.13 620.94 572.74 C 630.70 572.42 640.58 571.19 649.76 567.72 C 651.52 567.32 652.12 565.59 650.97 564.20 C 647.91 564.40 645.10 565.77 642.16 566.47 C 633.62 568.69 624.69 569.71 615.90 568.79 C 599.59 566.90 583.66 561.66 569.32 553.69 C 563.36 550.39 556.92 545.43 556.72 537.97 C 556.57 529.20 558.72 520.60 560.04 511.97 C 564.01 490.60 567.93 469.19 573.26 448.11 C 579.29 445.96 585.70 445.62 592.03 445.74 C 593.60 445.97 595.45 444.99 594.80 443.17 C 588.20 440.96 581.04 442.50 574.35 443.59 C 576.44 437.63 578.28 431.59 580.37 425.63 C 586.84 428.56 593.92 429.57 600.97 429.89 C 613.95 430.94 627.72 428.12 638.04 419.83 M 618.21 447.03 L 617.37 448.17 C 620.10 451.18 624.26 452.20 627.63 454.33 C 631.21 456.09 634.15 459.13 637.95 460.37 C 640.26 459.79 639.32 456.98 637.63 456.34 C 631.64 452.56 625.58 448.67 618.97 446.07 L 618.21 447.03 M 577.14 457.15 C 573.92 458.07 571.34 461.92 572.73 465.20 C 573.80 467.57 576.65 468.52 579.09 468.20 C 583.13 467.51 585.59 462.18 583.33 458.71 C 581.91 456.84 579.25 456.63 577.14 457.15 M 595.70 464.91 C 593.07 473.72 590.52 482.75 585.62 490.61 C 583.74 493.85 580.16 495.56 576.46 494.96 C 576.47 495.73 576.51 497.26 576.52 498.03 C 579.81 499.05 583.62 498.73 585.97 495.97 C 591.79 489.95 594.02 481.58 596.78 473.91 C 598.19 468.99 600.16 464.20 600.87 459.12 C 600.15 458.98 598.71 458.72 597.98 458.59 C 596.63 460.41 596.42 462.80 595.70 464.91 M 617.25 463.28 C 614.38 464.58 612.92 468.44 614.70 471.19 C 616.93 475.48 624.46 474.91 625.52 469.99 C 627.11 465.33 621.50 460.88 617.25 463.28 M 676.79 499.06 C 675.84 501.06 678.01 501.84 679.52 501.90 C 680.77 499.14 681.64 495.99 684.03 493.96 C 685.22 492.76 687.94 493.10 688.13 495.02 C 688.96 497.76 687.90 500.50 686.93 503.05 C 685.85 504.90 688.00 505.81 689.20 506.63 C 692.69 502.01 693.97 493.07 687.98 489.95 C 682.24 488.15 678.17 494.35 676.79 499.06 M 592.20 509.73 L 591.68 511.09 L 592.23 512.10 C 598.71 514.12 605.74 512.99 612.42 513.65 C 614.87 513.91 615.54 517.34 613.87 518.91 C 612.59 520.48 609.44 523.31 613.05 524.20 C 618.84 522.78 620.69 512.73 614.59 510.44 C 609.08 509.39 603.39 510.27 597.84 509.48 C 595.99 509.51 593.83 508.51 592.20 509.73 Z" />
<path fill="rgba(0,0,0,0)" opacity="1.00" d=" M 848.28 497.76 C 850.74 499.18 850.76 502.54 852.21 504.82 C 855.47 510.51 860.11 516.32 866.87 517.75 C 870.07 518.63 874.26 518.05 876.08 514.94 C 876.81 512.98 876.85 510.84 877.29 508.81 C 885.96 515.35 891.33 526.02 891.14 536.91 C 891.36 542.57 889.69 548.60 892.42 553.91 C 894.07 558.04 898.66 560.49 903.02 559.75 C 904.85 558.76 905.96 556.88 907.42 555.45 C 911.75 550.63 919.11 548.30 925.25 550.83 C 932.95 553.99 937.14 563.03 935.77 571.04 C 935.48 573.63 934.48 576.39 935.77 578.89 C 937.12 582.49 939.06 586.06 938.81 590.04 C 938.81 597.45 933.24 604.45 926.00 606.08 C 921.02 607.29 915.68 605.44 911.90 602.14 C 910.68 601.06 908.50 599.33 907.84 601.87 C 908.51 607.21 908.67 612.57 908.50 617.94 C 908.31 624.31 911.42 630.32 915.78 634.79 C 905.42 642.54 902.40 658.58 909.56 669.44 C 911.06 671.95 913.20 673.97 915.22 676.06 C 910.99 677.81 905.75 679.08 901.67 676.32 C 898.46 673.98 898.79 669.56 898.29 666.07 C 898.02 662.23 896.31 658.74 894.74 655.30 C 891.08 647.59 887.85 639.69 884.76 631.75 C 891.19 631.47 897.77 631.04 903.86 628.78 C 903.91 627.13 903.14 625.34 901.17 626.21 C 886.17 629.81 870.30 629.26 855.42 625.38 C 845.44 622.32 835.37 617.71 828.66 609.43 C 818.14 596.03 813.80 577.98 817.06 561.26 C 817.81 561.11 819.30 560.81 820.05 560.66 C 820.03 560.04 819.98 558.79 819.96 558.16 C 817.40 556.86 814.44 556.94 811.68 556.45 C 814.26 553.58 818.72 551.66 818.70 547.21 C 819.45 536.04 822.08 525.17 824.25 514.22 C 826.38 514.09 830.08 514.15 829.27 510.89 C 829.32 508.45 826.26 509.52 824.84 509.71 C 825.85 506.06 826.39 502.25 828.14 498.84 C 830.77 503.78 831.29 510.29 836.39 513.58 C 839.45 514.92 844.03 516.76 846.46 513.46 C 850.46 509.10 848.15 502.96 848.28 497.76 M 843.90 516.64 C 843.48 518.21 843.53 520.16 845.36 520.78 C 848.64 522.47 851.91 524.15 855.15 525.93 C 856.53 527.31 859.12 524.73 857.54 523.58 C 853.51 520.44 848.82 518.01 843.90 516.64 M 820.58 532.93 C 820.06 536.25 823.32 540.39 826.87 538.87 C 831.58 535.69 830.25 526.66 823.89 526.66 C 822.13 528.33 820.61 530.39 820.58 532.93 M 841.43 531.63 C 836.48 534.47 838.84 542.56 843.85 543.90 C 847.76 544.21 849.86 539.24 848.48 536.04 C 847.76 533.12 844.54 529.93 841.43 531.63 M 840.60 550.57 C 840.51 551.47 840.35 553.27 840.27 554.16 C 839.79 553.65 838.83 552.61 838.35 552.09 C 838.07 555.74 837.65 559.39 837.54 563.06 L 838.94 563.66 C 839.02 561.86 839.11 560.06 839.20 558.27 L 840.13 558.30 C 840.37 559.04 840.85 560.53 841.09 561.27 C 840.98 562.60 840.95 563.94 841.01 565.30 C 844.36 560.90 839.00 555.32 842.18 550.80 C 842.35 552.59 842.70 556.16 842.88 557.95 C 843.16 555.50 843.44 553.08 843.76 550.65 C 842.69 550.62 841.64 550.59 840.60 550.57 M 845.25 550.07 C 845.11 555.57 844.81 561.06 843.61 566.45 L 844.78 565.80 C 845.87 562.29 845.75 558.56 846.21 554.95 C 846.16 553.29 847.06 551.07 845.25 550.07 M 849.88 557.24 L 848.44 555.56 L 848.84 557.80 L 847.37 557.30 C 847.89 560.25 847.96 563.24 848.25 566.21 C 850.33 563.65 847.02 559.15 850.48 557.79 C 851.57 559.79 851.99 562.02 852.43 564.25 C 853.58 561.91 852.91 558.80 850.60 557.43 C 850.61 555.48 851.21 553.40 850.44 551.54 C 851.49 551.75 852.56 551.97 853.63 552.19 C 854.66 554.99 855.40 557.99 854.43 560.93 C 856.83 558.25 855.86 554.65 854.09 551.92 C 852.65 551.56 851.22 551.16 849.82 550.80 C 849.29 552.92 849.55 555.09 849.88 557.24 M 917.14 561.12 C 912.97 564.03 912.61 569.59 911.94 574.17 C 912.94 574.35 913.96 574.52 914.98 574.70 C 916.06 571.46 915.78 567.72 917.95 564.91 C 919.33 562.93 922.84 562.22 924.26 564.51 C 926.22 567.55 925.45 571.36 926.27 574.73 C 927.37 575.28 928.28 575.03 928.99 574.00 C 929.28 570.31 929.31 566.28 927.37 563.01 C 925.32 559.57 920.27 558.63 917.14 561.12 M 842.48 578.42 C 840.19 580.14 837.91 582.09 835.00 582.60 C 831.71 583.56 828.45 582.15 825.17 582.00 C 824.16 583.32 824.23 584.52 825.38 585.61 C 832.09 588.32 840.13 586.15 845.17 581.13 C 847.37 579.44 844.40 575.44 842.48 578.42 M 908.03 582.42 C 907.59 583.97 907.71 586.64 909.96 586.43 C 912.84 586.48 912.24 582.99 910.91 581.47 C 909.94 581.78 908.98 582.09 908.03 582.42 Z" />
<path fill="rgba(0,0,0,0)" opacity="1.00" d=" M 570.62 595.50 C 584.48 588.59 600.00 584.90 615.49 584.96 C 611.41 589.67 607.10 594.64 605.83 600.93 C 603.46 610.58 607.16 620.99 614.12 627.87 C 620.88 635.20 631.21 638.26 640.98 637.82 C 653.52 637.31 665.37 631.80 675.20 624.24 C 681.34 619.68 687.14 613.82 689.10 606.21 C 690.97 599.40 688.94 592.38 686.72 585.92 C 693.44 587.91 700.34 589.41 706.83 592.13 C 723.80 599.07 739.55 609.60 751.19 623.89 C 763.91 638.88 770.47 657.96 774.47 676.93 C 776.74 688.85 778.45 700.89 779.94 712.93 C 778.35 714.39 776.08 714.56 774.06 714.90 C 754.68 717.26 735.12 722.63 719.00 734.01 C 717.35 735.09 715.58 735.95 713.84 736.82 C 711.85 731.09 711.88 724.96 711.06 719.01 C 709.36 704.62 708.49 690.15 707.22 675.73 C 706.45 675.84 704.91 676.07 704.14 676.18 C 704.24 690.15 706.01 704.05 707.35 717.95 C 708.31 724.55 708.11 731.40 710.24 737.78 C 710.85 739.82 713.43 739.53 715.08 740.05 C 714.96 744.08 714.91 748.12 715.14 752.15 C 695.87 743.28 674.91 739.05 654.50 733.70 C 650.34 727.59 644.80 722.62 639.49 717.55 C 636.10 714.90 632.79 710.91 628.13 711.07 C 624.12 712.10 622.36 716.99 623.90 720.64 C 615.42 715.25 606.69 710.16 597.42 706.24 C 595.05 705.35 592.56 704.56 590.01 704.61 C 588.02 704.52 587.24 706.56 586.13 707.81 C 584.21 708.19 582.09 708.31 580.48 709.55 C 579.35 711.26 579.79 713.50 579.53 715.46 C 578.07 716.78 575.57 717.64 575.75 720.00 C 575.47 722.79 575.88 725.59 576.21 728.36 C 575.33 730.12 574.70 732.20 576.04 733.93 C 580.49 740.93 585.58 747.82 592.62 752.41 C 601.66 758.35 611.46 763.45 622.08 765.87 C 627.68 767.09 633.22 768.61 638.89 769.59 C 641.65 770.04 644.14 771.43 646.38 773.08 C 661.74 787.81 680.18 798.73 698.43 809.45 C 711.82 816.76 725.02 824.65 739.45 829.77 C 731.31 830.05 723.17 829.97 715.03 830.05 C 684.12 829.97 653.21 830.30 622.30 829.83 C 624.19 829.13 626.12 828.49 628.00 827.74 C 637.65 824.08 647.19 818.82 653.32 810.27 C 654.71 808.51 654.37 806.20 654.29 804.14 C 653.09 803.67 651.89 803.21 650.70 802.77 C 651.46 800.78 652.64 798.54 651.67 796.41 C 650.44 794.18 647.54 793.25 645.22 794.21 C 644.73 794.71 643.75 795.70 643.25 796.20 C 643.72 793.65 646.13 792.17 647.02 789.87 C 647.48 786.98 647.59 783.97 647.13 781.09 C 645.45 779.36 643.60 777.80 641.99 776.01 C 640.46 776.73 638.93 777.46 637.41 778.20 C 636.14 775.50 634.39 772.22 630.95 772.24 C 627.37 772.88 622.89 773.28 620.77 776.66 C 619.63 777.74 620.17 779.12 621.25 780.00 C 624.03 779.83 625.79 777.40 628.08 776.14 C 629.60 775.49 631.28 775.88 632.88 775.92 C 632.97 776.63 633.17 778.04 633.27 778.74 C 629.04 782.99 623.89 786.09 619.48 790.09 C 619.44 792.28 621.97 790.33 623.04 790.12 C 628.49 786.97 633.50 783.05 639.18 780.28 C 640.69 779.15 643.50 781.37 641.99 782.87 C 636.58 787.90 629.65 790.85 623.57 794.96 C 625.56 794.98 627.62 795.28 629.60 794.85 C 634.89 791.95 639.67 788.18 645.14 785.57 C 644.46 789.44 640.56 791.37 638.89 794.73 C 636.04 800.30 629.38 801.63 624.72 805.15 C 633.60 806.01 639.76 798.07 648.18 796.85 C 647.59 799.86 646.54 803.02 643.91 804.85 C 640.47 807.95 635.59 807.67 631.53 809.38 C 633.26 811.81 636.50 811.07 639.04 810.79 C 643.63 810.24 647.37 807.25 651.79 806.14 C 650.67 808.99 648.60 811.30 646.28 813.25 C 640.35 818.67 632.99 822.18 625.52 824.94 C 607.32 831.65 588.54 837.66 569.04 838.67 C 547.36 839.76 525.65 839.61 503.95 839.37 C 492.63 838.94 481.02 839.03 470.13 835.47 C 470.38 818.00 472.90 800.16 468.15 783.05 C 477.89 759.01 488.49 735.32 499.31 711.74 C 517.23 718.48 534.02 727.81 550.34 737.75 C 541.29 755.34 530.89 772.17 521.19 789.40 C 526.03 790.65 531.08 789.91 536.02 790.21 C 557.46 790.84 578.86 793.13 600.04 796.39 C 602.41 793.68 603.91 790.20 607.03 788.16 C 611.67 784.45 618.49 780.54 617.12 773.51 C 613.37 774.93 612.92 779.62 609.71 781.75 C 605.30 784.93 601.05 788.38 597.97 792.93 C 588.90 790.88 579.62 790.06 570.38 789.16 C 570.69 771.40 572.52 753.71 572.82 735.96 C 572.97 730.31 573.84 724.71 574.67 719.14 C 576.76 703.74 578.09 688.26 579.20 672.76 C 579.67 666.50 580.32 660.08 578.79 653.90 C 574.90 653.92 576.34 658.45 576.09 660.98 C 575.74 679.07 573.53 697.07 571.78 715.07 C 571.51 718.03 571.11 721.07 569.68 723.74 C 566.84 729.24 564.70 735.05 562.35 740.76 C 548.94 732.61 535.39 724.67 521.39 717.57 C 515.07 714.37 508.41 711.93 502.00 708.95 C 500.41 708.00 498.08 707.18 498.04 705.00 C 498.50 701.13 500.61 697.74 502.20 694.25 C 507.92 682.54 513.52 670.76 518.92 658.90 C 523.57 648.73 527.60 638.18 533.88 628.87 C 543.00 614.86 555.61 602.98 570.62 595.50 Z" />
<path fill="rgba(0,0,0,0)" opacity="1.00" d=" M 884.97 660.98 C 887.08 659.63 889.05 657.34 891.68 657.27 C 896.68 663.43 892.33 673.03 898.64 678.40 C 904.44 683.47 912.67 680.84 919.14 678.67 C 924.63 681.63 930.68 683.83 937.02 683.59 C 946.30 683.19 955.93 684.79 964.88 681.56 C 971.02 679.42 976.08 675.11 980.27 670.25 C 983.18 667.12 985.72 663.17 990.00 661.82 C 993.61 660.54 997.24 662.27 1000.61 663.49 C 1005.20 665.36 1010.32 665.13 1015.15 664.52 C 1018.15 664.16 1021.60 662.22 1024.00 665.07 L 1024.00 828.49 C 1015.11 826.50 1006.21 824.42 997.13 823.58 C 984.51 821.82 971.68 822.09 959.14 819.76 C 956.97 819.40 958.05 816.51 957.82 815.03 C 959.06 791.21 961.35 767.40 965.43 743.89 C 966.19 738.97 967.84 734.20 967.96 729.20 C 967.24 729.17 965.79 729.10 965.06 729.07 C 962.39 738.59 961.04 748.40 959.56 758.16 C 957.17 774.99 955.65 791.95 954.55 808.91 C 954.36 812.56 953.68 816.26 954.32 819.90 C 955.88 823.53 960.48 823.65 963.83 824.07 C 962.40 838.14 960.85 852.20 959.63 866.29 C 953.68 866.70 948.32 863.50 943.12 861.05 C 932.47 855.65 922.98 848.38 912.81 842.18 C 904.37 836.78 895.45 832.13 886.33 828.01 C 884.89 827.36 883.47 826.71 882.07 826.05 C 881.93 822.64 880.79 819.41 880.34 816.06 C 880.75 811.37 881.33 806.69 881.54 801.99 C 882.42 787.12 879.12 772.48 876.15 758.00 C 872.38 739.53 871.29 719.87 877.50 701.80 C 878.46 700.21 877.02 698.15 875.20 698.84 C 871.99 704.67 871.00 711.42 870.08 717.93 C 867.86 734.77 870.90 751.70 874.44 768.14 C 876.89 779.23 878.44 790.60 877.87 801.98 C 877.69 805.07 877.39 808.16 877.17 811.26 C 870.37 802.84 859.71 798.93 849.27 797.58 C 850.80 785.05 852.08 772.48 853.29 759.92 C 855.65 736.77 857.74 713.32 864.86 691.05 C 868.50 679.41 874.92 668.21 884.97 660.98 M 913.78 793.55 C 918.36 807.68 920.35 822.44 923.41 836.94 C 924.59 841.55 925.03 846.51 927.15 850.81 C 927.94 850.97 929.50 851.27 930.29 851.43 C 929.66 845.66 927.69 840.17 926.69 834.47 C 923.88 820.41 921.52 806.21 917.37 792.46 C 916.78 791.15 916.60 789.19 914.99 788.78 C 912.20 788.87 913.35 791.83 913.78 793.55 Z" />
<path fill="rgba(0,0,0,0)" opacity="1.00" d=" M 589.13 708.32 C 590.21 708.28 591.30 708.26 592.39 708.26 C 604.86 712.40 615.87 719.89 627.06 726.59 C 627.51 726.40 628.41 726.01 628.86 725.82 L 628.97 724.91 C 627.14 721.72 626.22 718.06 627.75 714.54 C 629.66 714.97 631.72 715.30 633.20 716.72 C 640.28 722.67 646.99 729.15 652.33 736.72 C 658.28 738.79 664.63 739.56 670.72 741.24 C 688.63 745.88 706.62 751.02 722.98 759.87 C 723.41 759.01 723.84 758.16 724.27 757.31 C 722.49 756.10 720.69 754.94 718.89 753.80 C 718.57 748.61 718.44 743.41 718.69 738.22 C 723.53 735.24 728.23 731.98 733.39 729.54 C 746.72 723.13 761.32 719.79 775.97 718.19 C 778.78 730.98 780.45 743.99 781.91 756.99 C 783.44 773.60 784.81 790.37 782.91 807.01 C 782.01 814.86 779.63 823.27 773.07 828.29 C 764.47 833.46 753.77 831.72 744.85 828.37 C 726.17 821.40 708.76 811.51 691.59 801.49 C 677.15 792.70 662.77 783.59 650.33 772.06 C 647.55 769.66 644.58 767.21 640.91 766.42 C 630.67 764.07 620.08 762.67 610.44 758.31 C 604.48 755.62 598.66 752.56 593.37 748.71 C 586.93 744.16 582.28 737.59 578.16 730.98 C 579.03 730.91 579.94 730.69 580.82 730.95 C 586.56 733.10 591.86 736.65 597.93 737.86 C 599.72 738.57 599.96 734.95 598.18 734.85 C 591.40 731.91 584.44 729.01 578.73 724.19 C 577.04 722.45 578.93 720.27 579.85 718.70 C 584.08 721.19 587.33 724.99 591.58 727.45 C 595.60 729.74 599.37 733.15 604.24 733.23 C 604.22 730.16 601.07 729.39 598.95 728.07 C 592.78 724.88 587.24 720.60 582.56 715.48 C 583.18 714.10 583.57 710.80 585.80 711.77 C 590.94 715.02 595.64 718.95 600.42 722.72 C 601.73 723.92 603.49 724.16 605.22 724.36 C 604.82 720.49 601.10 718.80 598.40 716.67 C 595.16 714.08 591.28 712.00 589.13 708.32 Z" />
<path fill="rgba(0,0,0,0)" opacity="1.00" d=" M 0.00 740.22 C 7.05 742.83 14.71 743.42 22.14 742.44 C 28.63 741.74 35.54 739.31 41.83 742.24 C 48.72 745.16 50.93 753.21 57.01 757.15 C 64.15 762.35 73.68 762.71 81.95 760.37 C 88.90 758.52 97.03 756.19 103.57 760.48 C 109.81 764.70 115.76 769.63 123.04 771.97 C 131.15 774.99 140.37 773.86 147.95 769.90 C 152.09 767.92 157.03 765.23 161.58 767.55 C 165.95 770.14 169.64 773.90 174.50 775.67 C 183.49 779.34 193.96 776.40 201.08 770.20 C 208.76 763.63 212.77 754.08 216.25 744.85 C 236.09 773.42 250.94 804.99 267.41 835.52 C 268.39 837.74 271.07 836.98 272.99 837.19 C 300.59 837.02 328.19 836.48 355.79 836.31 C 356.40 850.81 357.17 865.30 357.68 879.80 C 354.27 881.58 351.11 883.75 348.06 886.09 C 345.48 888.07 342.07 888.12 338.97 888.31 C 309.26 888.45 279.54 888.32 249.83 888.12 C 244.53 876.37 239.17 864.63 234.34 852.68 C 246.40 848.30 258.67 844.48 270.72 840.07 C 270.55 839.42 270.22 838.12 270.05 837.47 C 266.04 837.66 262.35 839.31 258.60 840.54 C 227.36 851.05 196.74 863.64 164.71 871.65 C 158.98 855.70 153.44 839.67 147.38 823.83 C 145.69 819.75 144.36 815.48 142.10 811.67 C 139.45 811.47 139.21 814.03 140.27 815.84 C 147.86 834.29 154.30 853.18 161.02 871.95 C 161.54 873.10 161.89 874.49 163.02 875.25 C 165.40 875.26 167.70 874.58 169.98 873.97 C 166.38 879.33 163.85 885.28 160.83 890.95 C 147.18 917.14 133.24 943.17 119.04 969.06 C 117.12 972.58 114.88 976.12 111.47 978.39 C 106.41 981.84 100.06 982.75 94.06 982.38 C 62.61 980.89 31.19 978.24 0.00 973.84 L 0.00 740.22 Z" />
<path fill="rgba(0,0,0,0)" opacity="1.00" d=" M 833.19 826.14 C 837.56 824.05 842.13 822.12 846.96 821.43 C 859.43 820.62 871.40 825.11 882.57 830.18 C 889.01 832.97 895.30 836.10 901.41 839.54 C 916.54 847.84 930.08 858.82 945.73 866.18 C 949.30 867.81 953.02 869.33 956.96 869.82 C 959.58 870.20 963.13 868.85 963.35 865.83 C 964.41 852.01 965.99 838.23 967.22 824.42 C 986.28 825.84 1005.50 827.08 1024.00 832.22 L 1024.00 850.70 C 1021.02 869.36 1017.20 887.96 1011.15 905.89 C 1008.49 913.69 1005.87 921.93 999.92 927.92 C 994.65 933.56 986.33 935.37 978.93 933.88 C 967.99 931.80 958.12 926.15 948.88 920.17 C 933.62 910.52 920.85 897.54 908.94 884.09 C 905.08 879.93 901.92 875.07 897.59 871.39 C 883.39 871.59 869.16 871.31 854.96 870.99 C 849.32 870.48 842.97 870.46 838.41 866.62 C 837.74 865.86 835.89 864.24 837.31 863.40 C 843.79 860.96 850.93 861.78 857.66 860.56 C 858.44 859.51 858.46 858.46 857.73 857.41 C 851.48 856.69 845.25 858.42 839.00 858.02 C 835.98 857.48 832.67 853.83 834.82 850.83 C 842.16 849.23 849.93 851.30 857.23 849.26 C 857.51 848.68 858.08 847.50 858.36 846.92 C 851.60 845.97 844.77 846.09 837.99 846.59 C 834.23 846.75 831.62 843.51 831.59 839.96 C 839.17 837.43 847.22 838.33 855.00 839.14 C 857.06 839.98 858.32 836.36 855.99 836.06 C 848.23 834.00 839.90 833.87 832.10 835.87 C 829.61 837.05 827.09 834.42 827.63 831.95 C 827.90 828.98 830.87 827.44 833.19 826.14 Z" />
<path fill="rgba(0,0,0,0)" opacity="1.00" d=" M 766.07 834.47 C 772.35 833.15 778.83 833.52 785.18 834.06 C 786.49 835.00 788.04 836.00 787.82 837.89 C 787.65 841.16 789.85 843.64 792.45 845.31 C 798.74 849.29 805.84 851.68 812.85 854.01 C 815.78 856.45 818.01 859.72 821.41 861.63 C 824.61 863.85 828.49 864.54 832.16 865.64 C 834.39 867.49 835.98 870.13 838.68 871.41 C 844.90 874.63 852.11 874.59 858.94 874.81 C 870.98 874.90 883.01 875.10 895.05 875.11 C 896.95 874.90 897.94 876.77 899.09 877.94 C 901.97 881.51 904.83 885.12 908.26 888.21 C 878.43 888.34 848.59 888.31 818.76 888.30 C 691.74 888.19 564.72 888.37 437.70 888.21 C 437.23 888.15 436.29 888.04 435.83 887.98 C 435.59 885.94 435.42 883.58 433.19 882.75 C 431.15 882.32 429.09 882.04 427.03 881.79 C 427.60 879.90 428.66 877.95 428.04 875.94 C 427.28 874.79 426.06 874.08 424.93 873.37 C 424.80 867.02 424.86 860.67 424.89 854.32 C 439.88 854.45 454.88 855.88 469.85 855.41 C 469.93 850.01 469.82 844.62 469.91 839.23 C 481.36 842.26 493.25 842.54 505.01 842.95 C 516.69 843.23 528.37 843.18 540.05 843.11 C 560.42 842.73 581.17 842.56 600.85 836.60 C 605.19 835.52 609.40 833.57 613.95 833.60 C 656.31 833.65 698.67 833.44 741.03 833.59 C 749.44 832.74 757.69 836.17 766.07 834.47 Z" />
<path fill="rgba(0,0,0,0)" opacity="1.00" d=" M 181.05 870.53 C 198.06 866.12 214.40 859.54 231.01 853.88 C 239.06 873.77 248.33 893.13 257.74 912.41 C 255.15 913.78 251.09 913.51 249.62 916.22 C 250.36 919.14 253.85 917.28 255.81 916.87 C 286.52 908.44 316.76 898.35 347.57 890.30 C 350.91 888.96 353.40 886.20 356.46 884.37 C 365.79 878.44 375.40 871.96 386.64 870.56 C 386.06 873.83 384.25 876.77 381.50 878.66 C 380.59 879.66 378.45 880.24 378.91 881.95 C 380.24 883.76 382.50 882.51 384.26 882.23 C 393.26 879.62 402.57 878.41 411.77 876.75 C 416.07 876.18 420.50 875.84 424.67 877.30 C 423.74 878.44 422.99 879.91 421.46 880.34 C 416.08 882.33 410.47 883.69 405.15 885.87 C 403.74 886.43 403.34 887.50 403.96 889.08 C 412.77 886.67 421.87 884.74 431.06 885.79 C 431.44 886.10 432.20 886.70 432.58 887.01 C 426.52 891.74 418.30 891.53 411.22 893.78 C 410.61 893.93 409.40 894.22 408.79 894.36 C 408.74 895.61 408.70 896.86 408.67 898.13 C 417.38 897.79 425.58 894.35 434.20 893.31 C 429.00 901.45 418.15 901.09 410.43 905.38 C 417.48 907.09 424.48 904.30 431.05 902.02 C 433.35 900.81 433.39 903.58 433.08 905.08 C 426.92 908.82 419.52 909.35 412.89 911.85 C 413.17 912.48 413.75 913.73 414.04 914.36 C 419.10 914.61 423.77 912.31 428.70 911.56 C 421.93 917.05 413.86 920.72 405.45 922.88 C 389.28 926.99 372.35 926.05 355.96 923.97 C 353.15 923.62 350.56 925.02 347.98 925.89 C 318.28 936.71 288.99 948.62 259.86 960.86 C 254.02 963.00 248.39 966.39 242.01 966.42 C 237.00 966.17 231.48 964.89 228.17 960.84 C 225.41 957.42 223.40 953.50 221.16 949.75 C 206.33 924.12 192.46 897.88 181.05 870.53 Z" />
<path fill="rgba(0,0,0,0)" opacity="1.00" d=" M 432.83 910.71 C 544.55 910.36 656.28 910.61 768.01 910.54 C 822.02 910.42 876.05 910.74 930.06 910.44 C 936.90 916.61 944.56 921.80 952.44 926.57 C 961.01 931.61 970.16 936.16 980.11 937.56 C 987.17 938.53 994.86 937.08 1000.36 932.32 C 1006.94 926.76 1010.40 918.60 1013.32 910.71 C 1016.87 910.77 1020.43 910.82 1024.00 910.80 L 1024.00 1024.00 L 0.00 1024.00 L 0.00 977.49 C 24.25 980.70 48.60 983.17 73.02 984.70 C 82.55 985.20 92.07 986.20 101.63 985.84 C 103.91 997.65 105.80 1009.54 108.19 1021.32 C 110.02 1021.11 111.53 1020.11 110.92 1018.05 C 109.35 1006.98 107.21 995.99 105.01 985.04 C 111.89 983.78 117.75 979.12 121.01 973.00 C 132.19 952.27 143.55 931.62 154.36 910.70 C 168.20 910.56 182.04 910.56 195.87 910.78 C 203.39 926.08 211.91 940.84 220.37 955.62 C 222.75 959.73 225.25 964.11 229.47 966.59 C 236.42 970.51 245.15 970.88 252.44 967.63 C 274.04 958.78 295.52 949.60 317.31 941.21 C 329.75 936.41 342.13 931.26 354.89 927.41 C 371.62 929.50 388.86 930.37 405.39 926.44 C 413.94 924.09 422.62 921.09 429.53 915.35 C 431.08 914.17 431.91 912.36 432.83 910.71 Z" />
</g>
<g id="Group-000000" fill="#000000">
<path fill="#000000" opacity="1.00" d=" M 246.11 339.06 C 255.36 333.55 266.35 331.54 277.01 332.01 C 297.45 333.15 316.51 341.81 334.11 351.68 C 343.96 357.55 354.15 363.54 361.59 372.45 C 364.79 376.10 365.71 381.25 364.45 385.88 C 362.62 392.66 359.14 399.17 354.01 404.02 C 348.98 408.66 341.83 409.40 335.31 409.75 C 339.06 421.30 342.08 433.11 343.38 445.20 C 345.80 468.05 347.06 491.04 347.09 514.02 C 346.88 523.32 347.49 533.61 341.45 541.41 C 332.56 552.95 317.70 557.92 303.80 560.08 C 304.25 569.12 304.87 578.16 305.89 587.16 C 324.50 589.22 342.52 596.99 356.40 609.63 C 369.98 621.71 379.15 638.02 385.11 655.02 C 392.06 674.64 396.91 694.91 402.18 715.01 C 403.41 720.27 405.36 725.51 405.17 730.97 C 401.99 735.82 395.05 735.00 390.45 737.72 C 394.33 758.10 398.33 778.46 402.13 798.86 C 408.75 798.74 415.38 798.95 422.00 799.18 C 422.95 789.20 425.72 779.49 429.19 770.12 C 432.66 761.27 430.23 751.55 431.69 742.39 C 432.19 739.47 435.24 737.95 437.96 737.85 C 443.97 737.39 450.01 737.75 456.03 737.93 C 458.49 738.01 461.96 738.35 462.56 741.32 C 463.41 749.17 462.23 757.14 463.13 765.01 C 463.84 769.37 465.64 773.44 466.74 777.70 C 467.83 774.36 469.11 771.09 470.55 767.89 C 479.02 748.63 487.15 729.19 496.46 710.32 C 495.00 708.18 493.96 705.60 494.84 703.02 C 496.50 697.11 499.71 691.81 502.25 686.27 C 506.63 677.27 510.86 668.19 515.05 659.10 C 519.46 649.58 523.17 639.70 528.62 630.70 C 536.58 617.44 547.28 605.66 560.40 597.37 C 577.01 586.43 596.99 581.79 616.66 581.02 C 616.93 578.14 617.24 575.27 617.59 572.42 C 601.47 570.91 585.78 565.83 571.32 558.65 C 564.83 555.19 557.69 551.29 554.61 544.21 C 551.77 537.74 553.65 530.59 554.47 523.91 C 557.08 508.06 559.96 492.26 563.31 476.55 C 566.85 458.62 570.94 440.74 577.44 423.62 C 561.37 412.36 553.87 390.81 558.96 371.93 C 561.81 360.24 570.69 350.47 581.72 345.89 C 595.39 340.19 611.98 341.31 624.31 349.71 C 629.28 352.88 632.96 357.49 636.79 361.86 C 642.04 359.34 647.21 356.45 653.00 355.28 C 662.97 352.94 674.10 354.31 682.57 360.32 C 691.18 366.21 696.76 375.98 698.02 386.28 C 706.58 383.24 715.97 380.53 725.01 383.07 C 741.18 387.42 750.37 408.39 741.96 423.03 C 738.60 429.17 732.07 432.54 725.61 434.49 C 730.27 442.05 731.09 451.48 728.93 459.99 C 725.95 472.31 718.53 482.96 710.51 492.55 C 707.09 496.84 702.14 500.09 700.49 505.57 C 697.89 512.79 690.90 517.93 683.23 518.23 C 683.17 518.58 683.03 519.29 682.96 519.65 C 681.73 519.85 680.49 519.99 679.26 520.14 C 679.37 519.67 679.58 518.74 679.69 518.27 C 677.54 518.06 675.11 517.50 675.58 514.72 C 680.76 514.41 686.53 515.14 691.05 512.00 C 698.02 507.21 700.28 497.92 699.00 489.92 C 698.32 484.88 695.69 479.42 690.59 477.65 C 684.93 475.89 679.28 479.63 676.13 484.10 C 673.80 487.84 673.21 492.31 671.61 496.36 C 670.73 495.93 669.89 495.48 669.07 494.99 C 670.40 486.48 674.01 478.04 672.66 469.32 C 669.75 466.06 666.76 462.63 665.85 458.21 C 663.24 446.37 670.36 434.85 668.22 423.00 C 667.04 416.40 660.89 410.43 653.92 411.16 C 647.72 411.89 642.73 416.07 638.04 419.83 C 627.72 428.12 613.95 430.94 600.97 429.89 C 593.92 429.57 586.84 428.56 580.37 425.63 C 578.28 431.59 576.44 437.63 574.35 443.59 C 581.04 442.50 588.20 440.96 594.80 443.17 C 595.45 444.99 593.60 445.97 592.03 445.74 C 585.70 445.62 579.29 445.96 573.26 448.11 C 567.93 469.19 564.01 490.60 560.04 511.97 C 558.72 520.60 556.57 529.20 556.72 537.97 C 556.92 545.43 563.36 550.39 569.32 553.69 C 583.66 561.66 599.59 566.90 615.90 568.79 C 624.69 569.71 633.62 568.69 642.16 566.47 C 645.10 565.77 647.91 564.40 650.97 564.20 C 652.12 565.59 651.52 567.32 649.76 567.72 C 640.58 571.19 630.70 572.42 620.94 572.74 C 620.36 577.13 620.49 581.72 619.00 585.93 C 616.62 589.53 613.35 592.49 611.29 596.31 C 608.87 600.31 608.48 605.11 608.64 609.69 C 607.15 606.97 606.10 604.02 605.83 600.93 C 607.10 594.64 611.41 589.67 615.49 584.96 C 600.00 584.90 584.48 588.59 570.62 595.50 C 555.61 602.98 543.00 614.86 533.88 628.87 C 527.60 638.18 523.57 648.73 518.92 658.90 C 513.52 670.76 507.92 682.54 502.20 694.25 C 500.61 697.74 498.50 701.13 498.04 705.00 C 498.08 707.18 500.41 708.00 502.00 708.95 C 508.41 711.93 515.07 714.37 521.39 717.57 C 535.39 724.67 548.94 732.61 562.35 740.76 C 564.70 735.05 566.84 729.24 569.68 723.74 C 571.11 721.07 571.51 718.03 571.78 715.07 C 573.53 697.07 575.74 679.07 576.09 660.98 C 576.34 658.45 574.90 653.92 578.79 653.90 C 580.32 660.08 579.67 666.50 579.20 672.76 C 578.09 688.26 576.76 703.74 574.67 719.14 C 573.84 724.71 572.97 730.31 572.82 735.96 C 572.52 753.71 570.69 771.40 570.38 789.16 C 579.62 790.06 588.90 790.88 597.97 792.93 C 601.05 788.38 605.30 784.93 609.71 781.75 C 612.92 779.62 613.37 774.93 617.12 773.51 C 618.49 780.54 611.67 784.45 607.03 788.16 C 603.91 790.20 602.41 793.68 600.04 796.39 C 578.86 793.13 557.46 790.84 536.02 790.21 C 531.08 789.91 526.03 790.65 521.19 789.40 C 530.89 772.17 541.29 755.34 550.34 737.75 C 534.02 727.81 517.23 718.48 499.31 711.74 C 488.49 735.32 477.89 759.01 468.15 783.05 C 472.90 800.16 470.38 818.00 470.13 835.47 C 481.02 839.03 492.63 838.94 503.95 839.37 C 525.65 839.61 547.36 839.76 569.04 838.67 C 588.54 837.66 607.32 831.65 625.52 824.94 C 626.34 825.86 627.16 826.80 628.00 827.74 C 626.12 828.49 624.19 829.13 622.30 829.83 C 653.21 830.30 684.12 829.97 715.03 830.05 C 723.17 829.97 731.31 830.05 739.45 829.77 C 725.02 824.65 711.82 816.76 698.43 809.45 C 680.18 798.73 661.74 787.81 646.38 773.08 C 647.69 772.73 649.00 772.40 650.33 772.06 C 662.77 783.59 677.15 792.70 691.59 801.49 C 708.76 811.51 726.17 821.40 744.85 828.37 C 753.77 831.72 764.47 833.46 773.07 828.29 C 774.00 828.93 775.00 829.42 776.08 829.77 C 778.34 829.94 780.62 830.01 782.90 830.12 C 782.96 830.40 783.06 830.97 783.11 831.25 C 783.69 832.25 784.40 833.17 785.18 834.06 C 778.83 833.52 772.35 833.15 766.07 834.47 C 757.69 836.17 749.44 832.74 741.03 833.59 C 698.67 833.44 656.31 833.65 613.95 833.60 C 609.40 833.57 605.19 835.52 600.85 836.60 C 581.17 842.56 560.42 842.73 540.05 843.11 C 528.37 843.18 516.69 843.23 505.01 842.95 C 493.25 842.54 481.36 842.26 469.91 839.23 C 469.82 844.62 469.93 850.01 469.85 855.41 C 454.88 855.88 439.88 854.45 424.89 854.32 C 424.86 860.67 424.80 867.02 424.93 873.37 C 423.67 873.17 422.42 873.00 421.16 872.88 C 421.37 858.77 421.09 844.65 421.38 830.53 C 411.68 829.98 401.94 830.60 392.25 829.75 C 392.23 828.97 392.19 827.42 392.16 826.65 C 401.89 825.99 411.64 827.15 421.38 826.86 C 421.50 818.77 421.44 810.67 421.92 802.60 C 400.36 802.34 378.79 802.24 357.24 801.55 C 357.98 809.61 358.03 817.72 358.92 825.77 C 368.41 826.44 377.97 825.76 387.44 826.61 C 387.61 827.62 387.74 828.64 387.84 829.68 C 378.27 830.07 368.68 829.75 359.10 829.53 C 359.80 845.38 360.69 861.24 361.16 877.10 C 368.03 873.02 375.22 869.10 383.13 867.50 C 385.35 866.99 388.41 867.05 389.59 869.40 C 391.12 872.56 389.49 875.97 387.17 878.23 C 396.13 875.63 405.40 874.14 414.65 872.94 C 416.49 873.42 418.30 874.00 420.13 874.57 C 417.25 874.85 414.14 874.82 411.77 876.75 C 402.57 878.41 393.26 879.62 384.26 882.23 C 382.50 882.51 380.24 883.76 378.91 881.95 C 378.45 880.24 380.59 879.66 381.50 878.66 C 384.25 876.77 386.06 873.83 386.64 870.56 C 375.40 871.96 365.79 878.44 356.46 884.37 C 353.40 886.20 350.91 888.96 347.57 890.30 C 316.76 898.35 286.52 908.44 255.81 916.87 C 253.85 917.28 250.36 919.14 249.62 916.22 C 251.09 913.51 255.15 913.78 257.74 912.41 C 248.33 893.13 239.06 873.77 231.01 853.88 C 214.40 859.54 198.06 866.12 181.05 870.53 C 192.46 897.88 206.33 924.12 221.16 949.75 C 223.40 953.50 225.41 957.42 228.17 960.84 C 231.48 964.89 237.00 966.17 242.01 966.42 C 248.39 966.39 254.02 963.00 259.86 960.86 C 288.99 948.62 318.28 936.71 347.98 925.89 C 350.56 925.02 353.15 923.62 355.96 923.97 C 372.35 926.05 389.28 926.99 405.45 922.88 C 405.43 924.06 405.41 925.24 405.39 926.44 C 388.86 930.37 371.62 929.50 354.89 927.41 C 342.13 931.26 329.75 936.41 317.31 941.21 C 295.52 949.60 274.04 958.78 252.44 967.63 C 245.15 970.88 236.42 970.51 229.47 966.59 C 225.25 964.11 222.75 959.73 220.37 955.62 C 211.91 940.84 203.39 926.08 195.87 910.78 C 182.04 910.56 168.20 910.56 154.36 910.70 C 143.55 931.62 132.19 952.27 121.01 973.00 C 117.75 979.12 111.89 983.78 105.01 985.04 C 107.21 995.99 109.35 1006.98 110.92 1018.05 C 111.53 1020.11 110.02 1021.11 108.19 1021.32 C 105.80 1009.54 103.91 997.65 101.63 985.84 C 92.07 986.20 82.55 985.20 73.02 984.70 C 48.60 983.17 24.25 980.70 0.00 977.49 L 0.00 973.84 C 31.19 978.24 62.61 980.89 94.06 982.38 C 100.06 982.75 106.41 981.84 111.47 978.39 C 114.88 976.12 117.12 972.58 119.04 969.06 C 133.24 943.17 147.18 917.14 160.83 890.95 C 163.85 885.28 166.38 879.33 169.98 873.97 C 167.70 874.58 165.40 875.26 163.02 875.25 C 161.89 874.49 161.54 873.10 161.02 871.95 C 154.30 853.18 147.86 834.29 140.27 815.84 C 139.21 814.03 139.45 811.47 142.10 811.67 C 144.36 815.48 145.69 819.75 147.38 823.83 C 153.44 839.67 158.98 855.70 164.71 871.65 C 196.74 863.64 227.36 851.05 258.60 840.54 C 262.35 839.31 266.04 837.66 270.05 837.47 C 270.22 838.12 270.55 839.42 270.72 840.07 C 258.67 844.48 246.40 848.30 234.34 852.68 C 239.17 864.63 244.53 876.37 249.83 888.12 C 279.54 888.32 309.26 888.45 338.97 888.31 C 342.07 888.12 345.48 888.07 348.06 886.09 C 351.11 883.75 354.27 881.58 357.68 879.80 C 357.17 865.30 356.40 850.81 355.79 836.31 C 328.19 836.48 300.59 837.02 272.99 837.19 C 271.07 836.98 268.39 837.74 267.41 835.52 C 250.94 804.99 236.09 773.42 216.25 744.85 C 212.77 754.08 208.76 763.63 201.08 770.20 C 193.96 776.40 183.49 779.34 174.50 775.67 C 169.64 773.90 165.95 770.14 161.58 767.55 C 157.03 765.23 152.09 767.92 147.95 769.90 C 140.37 773.86 131.15 774.99 123.04 771.97 C 115.76 769.63 109.81 764.70 103.57 760.48 C 97.03 756.19 88.90 758.52 81.95 760.37 C 73.68 762.71 64.15 762.35 57.01 757.15 C 50.93 753.21 48.72 745.16 41.83 742.24 C 35.54 739.31 28.63 741.74 22.14 742.44 C 14.71 743.42 7.05 742.83 0.00 740.22 L 0.00 659.43 C 10.96 650.59 23.78 644.47 35.04 636.04 C 48.11 626.50 60.27 614.63 66.66 599.50 C 74.73 579.68 73.60 557.47 81.75 537.67 C 86.43 525.80 94.62 515.44 104.79 507.79 C 117.62 498.11 133.01 491.69 149.00 489.84 C 171.23 488.54 193.62 492.71 214.26 500.95 C 210.45 494.33 206.57 487.75 202.85 481.08 C 191.93 462.03 183.27 441.21 181.31 419.14 C 180.14 405.39 180.75 390.43 188.56 378.55 C 195.61 368.03 207.94 363.17 219.54 359.52 C 218.04 355.36 215.90 351.40 214.85 347.08 C 215.44 346.61 216.63 345.67 217.22 345.20 C 218.88 348.21 220.18 351.41 221.60 354.54 C 224.95 348.07 226.88 340.92 230.71 334.70 C 231.32 332.43 234.58 334.47 233.44 336.04 C 230.73 343.00 227.47 349.75 224.93 356.79 C 231.57 350.42 238.11 343.75 246.11 339.06 M 261.66 411.58 C 263.40 421.29 265.60 431.30 263.80 441.16 C 262.05 449.98 254.90 456.02 248.61 461.80 C 248.35 461.81 247.85 461.85 247.59 461.86 C 246.09 457.39 244.70 452.31 240.44 449.64 C 234.75 445.58 226.37 448.31 222.75 453.89 C 219.68 458.66 218.42 464.44 218.36 470.06 C 218.41 475.64 220.01 481.90 224.93 485.16 C 229.57 487.89 235.10 486.86 240.19 486.67 C 241.16 489.95 237.91 490.08 235.66 490.27 C 236.02 497.75 236.41 505.25 237.20 512.69 C 249.32 520.73 260.98 531.43 265.25 545.79 C 267.92 554.17 264.81 564.43 257.01 568.93 C 259.65 582.11 261.52 595.43 262.92 608.79 C 277.16 610.62 291.73 611.13 305.89 608.39 C 302.63 592.64 301.12 576.59 300.32 560.55 C 291.59 561.02 282.59 561.28 274.11 558.84 C 272.99 558.52 270.65 557.42 272.15 556.00 C 272.62 554.52 274.48 555.66 275.55 555.67 C 293.23 559.58 312.55 557.38 328.40 548.37 C 335.88 544.22 342.17 536.88 342.88 528.08 C 344.53 507.39 342.70 486.64 341.73 465.97 C 340.86 458.14 340.60 450.22 339.36 442.46 C 337.34 439.28 332.48 439.64 330.02 436.88 C 329.90 435.44 330.58 434.65 332.05 434.50 C 334.37 434.94 336.46 436.10 338.61 437.04 C 337.15 427.75 334.52 418.65 331.17 409.87 C 325.11 410.41 319.02 410.08 312.95 410.27 C 295.84 410.24 278.76 411.19 261.66 411.58 M 232.70 575.78 C 231.52 587.31 237.40 599.24 232.48 610.37 C 229.27 617.64 219.57 619.37 212.95 616.13 C 211.32 613.01 211.33 608.97 208.73 606.26 C 204.84 600.92 196.72 601.33 191.92 605.13 C 187.05 608.80 185.23 615.12 184.90 620.97 C 184.75 627.36 186.43 634.24 191.07 638.90 C 192.81 640.73 195.39 641.14 197.54 642.30 C 211.17 663.98 219.35 689.28 219.82 714.96 C 228.58 714.73 237.33 711.67 244.04 705.97 C 252.18 699.00 256.66 688.86 259.68 678.80 C 256.15 677.99 252.29 676.80 249.93 673.93 C 248.55 672.86 250.36 670.26 251.87 671.21 C 254.70 672.74 257.27 675.04 260.68 675.08 C 261.55 670.24 262.54 665.36 262.57 660.45 C 259.53 656.24 258.14 651.20 256.74 646.28 C 255.16 640.22 253.38 634.17 252.47 627.96 C 254.00 624.39 256.09 629.13 256.47 630.86 C 258.69 638.60 260.65 646.41 262.69 654.21 C 263.03 649.81 262.92 645.40 262.85 641.00 C 262.77 636.13 259.97 631.95 258.61 627.42 C 258.28 625.65 260.36 626.38 261.36 626.38 C 259.40 607.87 257.70 589.24 253.58 571.05 C 247.07 574.16 239.90 575.66 232.70 575.78 M 342.55 686.77 C 342.15 688.46 342.54 690.19 342.67 691.91 C 344.47 708.39 346.13 725.06 351.15 740.94 C 351.83 742.17 352.12 745.19 354.19 744.17 C 353.99 739.99 352.25 736.08 351.48 731.99 C 347.68 717.24 346.90 701.97 344.72 686.97 C 344.18 686.92 343.09 686.82 342.55 686.77 M 319.99 709.90 C 321.38 718.03 322.96 726.19 322.91 734.48 C 311.98 736.03 301.02 737.33 290.00 738.01 C 288.39 729.56 288.18 720.90 286.64 712.45 C 284.15 710.82 284.37 714.40 284.58 715.93 C 285.45 724.22 285.81 732.63 287.82 740.75 C 298.29 740.34 308.69 739.01 319.09 737.77 C 321.22 737.53 323.27 736.91 325.30 736.24 C 326.19 729.45 324.79 722.70 323.86 716.00 C 323.35 713.36 323.04 710.63 321.92 708.17 C 320.39 707.80 319.75 708.38 319.99 709.90 M 564.82 742.82 C 564.08 744.25 562.36 744.19 561.00 743.90 C 558.38 742.61 556.03 740.83 553.46 739.47 C 544.73 755.27 536.01 771.11 526.79 786.63 C 540.15 786.56 553.49 787.54 566.79 788.77 C 567.09 777.17 567.85 765.60 568.42 754.01 C 569.00 746.96 568.80 739.86 569.83 732.85 C 567.75 735.97 567.09 739.82 564.82 742.82 M 354.68 746.64 C 357.56 763.85 360.44 781.07 362.97 798.35 C 374.80 798.31 386.63 798.69 398.46 798.90 C 394.75 778.67 391.07 758.43 386.78 738.32 C 376.10 741.17 365.39 743.89 354.68 746.64 M 435.95 741.85 C 435.07 744.99 434.84 748.25 434.59 751.50 C 442.39 748.68 451.25 748.85 459.07 751.59 C 458.92 748.39 458.92 745.18 458.85 741.99 C 451.26 741.15 443.54 740.85 435.95 741.85 M 435.13 755.22 C 434.45 759.89 435.01 764.78 433.27 769.26 C 430.77 776.01 428.45 782.87 427.10 789.96 C 425.60 797.55 425.57 805.31 425.28 813.02 C 425.04 825.61 424.87 838.21 424.88 850.81 C 438.71 851.13 452.53 851.95 466.37 852.17 C 466.41 836.44 467.22 820.74 467.44 805.02 C 467.57 792.97 464.21 781.28 460.47 769.94 C 458.84 765.44 458.90 760.64 458.92 755.93 C 451.73 752.16 442.73 752.99 435.13 755.22 M 173.99 874.01 C 171.38 878.88 168.86 883.81 165.92 888.50 C 172.24 888.49 178.57 888.55 184.89 888.54 C 182.44 882.77 180.08 876.94 177.15 871.39 C 176.03 872.14 174.59 872.69 173.99 874.01 M 164.06 892.17 C 161.37 897.07 159.30 902.31 156.25 907.01 C 168.90 907.12 181.56 907.14 194.22 907.10 C 191.49 902.22 189.01 897.22 186.68 892.14 C 179.14 892.14 171.60 892.12 164.06 892.17 M 251.61 891.77 C 254.27 896.93 256.53 902.31 259.58 907.26 C 264.39 906.96 269.21 907.19 274.02 907.26 C 279.21 907.25 284.03 905.11 288.95 903.74 C 302.02 899.95 314.95 895.68 328.17 892.44 C 321.48 891.60 314.74 891.98 308.02 891.87 C 289.22 891.69 270.42 891.81 251.61 891.77 M 260.51 911.82 C 262.11 911.72 264.02 911.91 265.09 910.44 C 263.42 910.42 261.14 909.62 260.51 911.82 Z" />
<path fill="#000000" opacity="1.00" d=" M 882.07 413.44 C 900.35 407.26 920.64 407.56 938.79 414.09 C 964.27 422.87 986.65 442.10 996.57 467.49 C 1003.14 484.12 1003.88 502.31 1003.11 519.97 C 1002.74 535.30 1001.06 551.16 1005.93 566.00 C 1008.75 574.92 1015.13 582.92 1024.00 586.37 L 1024.00 665.07 C 1021.60 662.22 1018.15 664.16 1015.15 664.52 C 1010.32 665.13 1005.20 665.36 1000.61 663.49 C 997.24 662.27 993.61 660.54 990.00 661.82 C 985.72 663.17 983.18 667.12 980.27 670.25 C 976.08 675.11 971.02 679.42 964.88 681.56 C 955.93 684.79 946.30 683.19 937.02 683.59 C 930.68 683.83 924.63 681.63 919.14 678.67 C 912.67 680.84 904.44 683.47 898.64 678.40 C 892.33 673.03 896.68 663.43 891.68 657.27 C 889.05 657.34 887.08 659.63 884.97 660.98 C 874.92 668.21 868.50 679.41 864.86 691.05 C 857.74 713.32 855.65 736.77 853.29 759.92 C 852.08 772.48 850.80 785.05 849.27 797.58 C 859.71 798.93 870.37 802.84 877.17 811.26 C 877.39 808.16 877.69 805.07 877.87 801.98 C 878.79 801.98 880.63 801.99 881.54 801.99 C 881.33 806.69 880.75 811.37 880.34 816.06 C 880.79 819.41 881.93 822.64 882.07 826.05 C 883.47 826.71 884.89 827.36 886.33 828.01 C 885.06 828.72 883.81 829.44 882.57 830.18 C 871.40 825.11 859.43 820.62 846.96 821.43 C 842.13 822.12 837.56 824.05 833.19 826.14 C 830.87 827.44 827.90 828.98 827.63 831.95 C 827.09 834.42 829.61 837.05 832.10 835.87 C 839.90 833.87 848.23 834.00 855.99 836.06 C 858.32 836.36 857.06 839.98 855.00 839.14 C 847.22 838.33 839.17 837.43 831.59 839.96 C 831.62 843.51 834.23 846.75 837.99 846.59 C 844.77 846.09 851.60 845.97 858.36 846.92 C 858.08 847.50 857.51 848.68 857.23 849.26 C 849.93 851.30 842.16 849.23 834.82 850.83 C 832.67 853.83 835.98 857.48 839.00 858.02 C 845.25 858.42 851.48 856.69 857.73 857.41 C 858.46 858.46 858.44 859.51 857.66 860.56 C 850.93 861.78 843.79 860.96 837.31 863.40 C 835.89 864.24 837.74 865.86 838.41 866.62 C 842.97 870.46 849.32 870.48 854.96 870.99 C 869.16 871.31 883.39 871.59 897.59 871.39 C 901.92 875.07 905.08 879.93 908.94 884.09 C 920.85 897.54 933.62 910.52 948.88 920.17 C 958.12 926.15 967.99 931.80 978.93 933.88 C 986.33 935.37 994.65 933.56 999.92 927.92 C 1005.87 921.93 1008.49 913.69 1011.15 905.89 C 1017.20 887.96 1021.02 869.36 1024.00 850.70 L 1024.00 870.50 C 1022.71 876.54 1021.58 882.64 1019.87 888.59 C 1021.24 888.47 1022.61 888.37 1024.00 888.27 L 1024.00 892.61 C 1022.33 892.36 1020.67 892.20 1019.02 892.03 C 1017.71 897.06 1016.28 902.05 1014.61 906.97 C 1017.73 906.96 1020.86 906.97 1024.00 906.96 L 1024.00 910.80 C 1020.43 910.82 1016.87 910.77 1013.32 910.71 C 1010.40 918.60 1006.94 926.76 1000.36 932.32 C 994.86 937.08 987.17 938.53 980.11 937.56 C 970.16 936.16 961.01 931.61 952.44 926.57 C 944.56 921.80 936.90 916.61 930.06 910.44 C 930.55 910.22 931.55 909.78 932.05 909.56 C 929.74 906.50 925.62 908.45 922.47 907.26 C 923.41 907.20 925.29 907.09 926.23 907.03 C 920.91 902.32 915.95 897.22 911.25 891.89 C 881.16 891.58 851.07 891.91 820.98 891.69 C 821.68 891.08 822.38 890.48 823.10 889.89 C 821.65 889.33 820.21 888.78 818.76 888.30 C 848.59 888.31 878.43 888.34 908.26 888.21 C 904.83 885.12 901.97 881.51 899.09 877.94 C 897.94 876.77 896.95 874.90 895.05 875.11 C 883.01 875.10 870.98 874.90 858.94 874.81 C 852.11 874.59 844.90 874.63 838.68 871.41 C 835.98 870.13 834.39 867.49 832.16 865.64 C 828.49 864.54 824.61 863.85 821.41 861.63 C 818.01 859.72 815.78 856.45 812.85 854.01 C 805.84 851.68 798.74 849.29 792.45 845.31 C 793.39 844.52 794.35 843.74 795.31 842.98 C 800.05 845.65 805.13 847.66 810.24 849.52 C 806.46 844.03 804.57 837.53 804.21 830.92 C 801.40 830.22 798.52 830.05 795.67 829.66 C 793.37 828.27 790.75 827.68 788.11 827.46 C 789.84 826.96 791.58 826.45 793.34 826.02 C 797.11 825.99 800.87 826.39 804.60 826.92 C 804.69 821.06 806.38 815.41 809.13 810.27 C 803.28 808.81 797.31 807.66 791.26 807.98 C 791.14 808.46 790.90 809.42 790.78 809.91 C 790.40 811.28 789.99 812.66 789.61 814.05 C 786.45 811.65 786.90 804.98 791.48 804.68 C 798.21 803.73 804.81 805.96 811.41 806.96 C 820.15 797.80 833.67 795.94 845.71 797.20 C 850.08 765.02 850.62 732.23 858.41 700.59 C 862.18 686.12 867.53 670.92 879.32 661.00 C 871.24 660.83 863.09 657.24 858.33 650.57 C 853.31 644.02 852.20 635.57 851.66 627.59 C 840.27 624.45 829.61 617.77 823.09 607.76 C 814.07 594.08 810.30 576.71 813.87 560.62 C 810.76 560.12 807.47 559.59 805.31 557.06 C 808.15 552.75 814.91 551.22 815.32 545.50 C 816.51 535.33 818.29 525.24 820.27 515.20 C 821.12 510.72 822.48 506.33 822.89 501.76 C 820.34 504.72 819.11 508.63 816.13 511.24 C 815.06 509.29 814.12 507.22 813.91 504.98 C 812.61 494.00 814.37 482.79 818.36 472.51 C 829.32 444.59 853.84 422.94 882.07 413.44 M 848.28 497.76 C 848.15 502.96 850.46 509.10 846.46 513.46 C 844.03 516.76 839.45 514.92 836.39 513.58 C 831.29 510.29 830.77 503.78 828.14 498.84 C 826.39 502.25 825.85 506.06 824.84 509.71 C 826.26 509.52 829.32 508.45 829.27 510.89 C 830.08 514.15 826.38 514.09 824.25 514.22 C 822.08 525.17 819.45 536.04 818.70 547.21 C 818.72 551.66 814.26 553.58 811.68 556.45 C 814.44 556.94 817.40 556.86 819.96 558.16 C 819.98 558.79 820.03 560.04 820.05 560.66 C 819.30 560.81 817.81 561.11 817.06 561.26 C 813.80 577.98 818.14 596.03 828.66 609.43 C 835.37 617.71 845.44 622.32 855.42 625.38 C 870.30 629.26 886.17 629.81 901.17 626.21 C 903.14 625.34 903.91 627.13 903.86 628.78 C 897.77 631.04 891.19 631.47 884.76 631.75 C 887.85 639.69 891.08 647.59 894.74 655.30 C 896.31 658.74 898.02 662.23 898.29 666.07 C 898.79 669.56 898.46 673.98 901.67 676.32 C 905.75 679.08 910.99 677.81 915.22 676.06 C 913.20 673.97 911.06 671.95 909.56 669.44 C 902.40 658.58 905.42 642.54 915.78 634.79 C 911.42 630.32 908.31 624.31 908.50 617.94 C 908.67 612.57 908.51 607.21 907.84 601.87 C 908.50 599.33 910.68 601.06 911.90 602.14 C 915.68 605.44 921.02 607.29 926.00 606.08 C 933.24 604.45 938.81 597.45 938.81 590.04 C 939.06 586.06 937.12 582.49 935.77 578.89 C 934.48 576.39 935.48 573.63 935.77 571.04 C 937.14 563.03 932.95 553.99 925.25 550.83 C 919.11 548.30 911.75 550.63 907.42 555.45 C 905.96 556.88 904.85 558.76 903.02 559.75 C 898.66 560.49 894.07 558.04 892.42 553.91 C 889.69 548.60 891.36 542.57 891.14 536.91 C 891.33 526.02 885.96 515.35 877.29 508.81 C 876.85 510.84 876.81 512.98 876.08 514.94 C 874.26 518.05 870.07 518.63 866.87 517.75 C 860.11 516.32 855.47 510.51 852.21 504.82 C 850.76 502.54 850.74 499.18 848.28 497.76 Z" />
<path fill="#000000" opacity="1.00" d=" M 331.20 451.26 C 336.41 449.55 339.83 456.16 338.40 460.47 C 337.40 463.04 333.80 464.25 331.62 462.35 C 328.24 459.97 326.91 453.37 331.20 451.26 Z" />
</g>
<g id="Group-000000" fill="#000000">
<path fill="#000000" opacity="1.00" d=" M 299.47 436.50 C 301.20 435.17 303.99 438.39 301.62 439.39 C 296.47 441.83 291.01 443.58 285.74 445.77 C 283.79 447.33 281.33 443.70 283.76 442.75 C 288.80 440.23 294.18 438.42 299.47 436.50 Z" />
</g>
<g id="Group-000000" fill="#000000">
<path fill="#000000" opacity="1.00" d=" M 618.21 447.03 L 618.97 446.07 C 625.58 448.67 631.64 452.56 637.63 456.34 C 639.32 456.98 640.26 459.79 637.95 460.37 C 634.15 459.13 631.21 456.09 627.63 454.33 C 624.26 452.20 620.10 451.18 617.37 448.17 L 618.21 447.03 Z" />
</g>
<g id="Group-000000" fill="#000000">
<path fill="#000000" opacity="1.00" d=" M 315.24 452.26 C 315.90 450.80 318.25 450.73 318.49 452.53 C 321.68 464.76 323.27 477.66 329.16 489.03 C 330.23 491.62 333.01 492.55 335.26 493.83 C 334.71 495.52 333.59 496.23 331.88 495.97 C 328.93 495.54 327.06 492.78 325.69 490.38 C 321.49 482.11 319.44 472.98 317.49 463.97 C 316.68 460.08 315.47 456.24 315.24 452.26 Z" />
</g>
<g id="Group-000000" fill="#000000">
<path fill="#000000" opacity="1.00" d=" M 294.38 454.34 C 297.73 452.29 302.58 454.22 303.52 458.06 C 304.89 461.51 301.76 465.72 298.04 465.23 C 292.69 465.42 289.43 457.20 294.38 454.34 Z" />
<path fill="#000000" opacity="1.00" d=" M 195.42 616.52 C 198.18 614.10 203.14 614.94 204.65 618.39 C 206.75 622.68 207.23 627.56 207.26 632.28 C 206.29 632.46 205.32 632.64 204.36 632.82 C 203.34 628.68 203.31 624.29 201.62 620.34 C 200.81 618.49 198.19 618.49 197.01 619.97 C 195.05 622.31 195.26 625.60 194.80 628.46 C 193.10 628.36 191.27 628.16 191.42 625.98 C 191.46 622.47 192.77 618.88 195.42 616.52 Z" />
</g>
<g id="Group-000000" fill="#000000">
<path fill="#000000" opacity="1.00" d=" M 577.14 457.15 C 579.25 456.63 581.91 456.84 583.33 458.71 C 585.59 462.18 583.13 467.51 579.09 468.20 C 576.65 468.52 573.80 467.57 572.73 465.20 C 571.34 461.92 573.92 458.07 577.14 457.15 Z" />
</g>
<g id="Group-000000" fill="#000000">
<path fill="#000000" opacity="1.00" d=" M 595.70 464.91 C 596.42 462.80 596.63 460.41 597.98 458.59 C 598.71 458.72 600.15 458.98 600.87 459.12 C 600.16 464.20 598.19 468.99 596.78 473.91 C 594.02 481.58 591.79 489.95 585.97 495.97 C 583.62 498.73 579.81 499.05 576.52 498.03 C 576.51 497.26 576.47 495.73 576.46 494.96 C 580.16 495.56 583.74 493.85 585.62 490.61 C 590.52 482.75 593.07 473.72 595.70 464.91 Z" />
</g>
<g id="Group-000000" fill="#000000">
<path fill="#000000" opacity="1.00" d=" M 229.48 463.57 C 231.35 459.99 237.01 458.85 239.41 462.50 C 241.90 466.53 243.21 471.36 243.30 476.09 C 242.48 476.12 240.83 476.19 240.01 476.22 C 238.72 471.88 238.70 466.66 235.07 463.45 C 230.91 465.72 230.89 470.92 230.07 475.02 C 229.36 474.95 227.94 474.82 227.23 474.75 C 226.49 470.91 227.69 466.95 229.48 463.57 Z" />
<path fill="#000000" opacity="1.00" d=" M 843.90 516.64 C 848.82 518.01 853.51 520.44 857.54 523.58 C 859.12 524.73 856.53 527.31 855.15 525.93 C 851.91 524.15 848.64 522.47 845.36 520.78 C 843.53 520.16 843.48 518.21 843.90 516.64 Z" />
</g>
<g id="Group-000000" fill="#000000">
<path fill="#000000" opacity="1.00" d=" M 617.25 463.28 C 621.50 460.88 627.11 465.33 625.52 469.99 C 624.46 474.91 616.93 475.48 614.70 471.19 C 612.92 468.44 614.38 464.58 617.25 463.28 Z" />
</g>
<g id="Group-000000" fill="#000000">
<path fill="#000000" opacity="1.00" d=" M 676.79 499.06 C 678.17 494.35 682.24 488.15 687.98 489.95 C 693.97 493.07 692.69 502.01 689.20 506.63 C 688.00 505.81 685.85 504.90 686.93 503.05 C 687.90 500.50 688.96 497.76 688.13 495.02 C 687.94 493.10 685.22 492.76 684.03 493.96 C 681.64 495.99 680.77 499.14 679.52 501.90 C 678.01 501.84 675.84 501.06 676.79 499.06 Z" />
<path fill="#000000" opacity="1.00" d=" M 782.91 807.01 C 784.00 807.31 785.10 807.63 786.20 807.95 C 785.75 810.68 785.14 813.38 784.61 816.10 C 787.04 816.01 789.48 815.97 791.93 815.95 C 791.14 815.31 790.37 814.68 789.61 814.05 C 789.99 812.66 790.40 811.28 790.78 809.91 C 794.28 814.76 801.14 815.37 804.57 820.22 C 797.78 820.00 791.05 818.60 784.23 819.13 C 784.18 821.32 784.18 823.51 784.24 825.72 C 787.27 825.87 790.30 825.98 793.34 826.02 C 791.58 826.45 789.84 826.96 788.11 827.46 C 790.75 827.68 793.37 828.27 795.67 829.66 C 792.71 829.48 789.76 829.28 786.81 829.17 C 787.41 830.98 787.65 833.39 789.71 834.20 C 792.83 836.13 797.67 835.98 799.29 839.78 C 796.67 840.19 794.03 840.37 791.40 840.48 C 792.68 841.34 793.97 842.18 795.31 842.98 C 794.35 843.74 793.39 844.52 792.45 845.31 C 789.85 843.64 787.65 841.16 787.82 837.89 C 788.04 836.00 786.49 835.00 785.18 834.06 C 784.40 833.17 783.69 832.25 783.11 831.25 C 783.06 830.97 782.96 830.40 782.90 830.12 C 782.64 828.07 781.64 826.24 780.77 824.41 C 779.36 826.33 777.87 828.19 776.08 829.77 C 775.00 829.42 774.00 828.93 773.07 828.29 C 779.63 823.27 782.01 814.86 782.91 807.01 Z" />
</g>
<g id="Group-000000" fill="#000000">
<path fill="#000000" opacity="1.00" d=" M 292.08 512.90 C 290.65 509.46 292.42 504.87 296.12 503.81 C 300.24 502.61 304.33 504.72 308.27 505.72 C 311.57 506.88 315.22 506.49 318.42 507.98 C 317.71 509.38 316.81 510.76 315.00 510.35 C 309.39 510.70 304.45 507.43 298.98 507.01 C 296.69 506.62 294.58 508.77 295.10 511.05 C 296.33 514.74 300.20 516.26 303.03 518.50 C 302.41 519.38 301.79 520.26 301.16 521.14 C 297.48 519.30 293.74 516.84 292.08 512.90 Z" />
<path fill="#000000" opacity="1.00" d=" M 245.27 629.73 C 244.45 628.00 246.27 627.08 247.38 626.20 C 249.90 630.40 250.15 635.45 251.34 640.11 C 252.19 645.46 254.08 650.68 254.13 656.15 C 253.36 656.12 251.83 656.06 251.06 656.04 C 248.79 647.35 247.28 638.48 245.27 629.73 Z" />
</g>
<g id="Group-000000" fill="#000000">
<path fill="#000000" opacity="1.00" d=" M 592.20 509.73 C 593.83 508.51 595.99 509.51 597.84 509.48 C 603.39 510.27 609.08 509.39 614.59 510.44 C 620.69 512.73 618.84 522.78 613.05 524.20 C 609.44 523.31 612.59 520.48 613.87 518.91 C 615.54 517.34 614.87 513.91 612.42 513.65 C 605.74 512.99 598.71 514.12 592.23 512.10 L 591.68 511.09 L 592.20 509.73 Z" />
</g>
<g id="Group-000000" fill="#000000">
<path fill="#000000" opacity="1.00" d=" M 679.26 520.14 C 680.49 519.99 681.73 519.85 682.96 519.65 C 680.88 532.31 680.14 545.18 679.94 558.00 C 679.74 566.12 680.91 574.36 684.39 581.77 C 690.26 583.57 696.33 584.64 702.10 586.74 C 727.97 595.53 751.50 613.06 764.56 637.39 C 777.01 660.30 780.04 686.65 783.57 712.06 C 783.85 714.71 781.49 716.32 779.74 717.84 C 782.31 731.79 784.38 745.83 785.75 759.96 C 787.04 775.89 788.31 792.03 786.20 807.95 C 785.10 807.63 784.00 807.31 782.91 807.01 C 784.81 790.37 783.44 773.60 781.91 756.99 C 780.45 743.99 778.78 730.98 775.97 718.19 C 761.32 719.79 746.72 723.13 733.39 729.54 C 728.23 731.98 723.53 735.24 718.69 738.22 C 718.44 743.41 718.57 748.61 718.89 753.80 C 720.69 754.94 722.49 756.10 724.27 757.31 C 723.84 758.16 723.41 759.01 722.98 759.87 C 706.62 751.02 688.63 745.88 670.72 741.24 C 664.63 739.56 658.28 738.79 652.33 736.72 C 646.99 729.15 640.28 722.67 633.20 716.72 C 631.72 715.30 629.66 714.97 627.75 714.54 C 626.22 718.06 627.14 721.72 628.97 724.91 L 628.86 725.82 C 628.41 726.01 627.51 726.40 627.06 726.59 C 615.87 719.89 604.86 712.40 592.39 708.26 C 594.09 707.64 595.74 706.93 597.42 706.24 C 606.69 710.16 615.42 715.25 623.90 720.64 C 622.36 716.99 624.12 712.10 628.13 711.07 C 632.79 710.91 636.10 714.90 639.49 717.55 C 644.80 722.62 650.34 727.59 654.50 733.70 C 674.91 739.05 695.87 743.28 715.14 752.15 C 714.91 748.12 714.96 744.08 715.08 740.05 C 713.43 739.53 710.85 739.82 710.24 737.78 C 708.11 731.40 708.31 724.55 707.35 717.95 C 706.01 704.05 704.24 690.15 704.14 676.18 C 704.91 676.07 706.45 675.84 707.22 675.73 C 708.49 690.15 709.36 704.62 711.06 719.01 C 711.88 724.96 711.85 731.09 713.84 736.82 C 715.58 735.95 717.35 735.09 719.00 734.01 C 735.12 722.63 754.68 717.26 774.06 714.90 C 776.08 714.56 778.35 714.39 779.94 712.93 C 778.45 700.89 776.74 688.85 774.47 676.93 C 770.47 657.96 763.91 638.88 751.19 623.89 C 739.55 609.60 723.80 599.07 706.83 592.13 C 700.34 589.41 693.44 587.91 686.72 585.92 C 688.94 592.38 690.97 599.40 689.10 606.21 C 687.14 613.82 681.34 619.68 675.20 624.24 C 665.37 631.80 653.52 637.31 640.98 637.82 C 631.21 638.26 620.88 635.20 614.12 627.87 C 607.16 620.99 603.46 610.58 605.83 600.93 C 606.10 604.02 607.15 606.97 608.64 609.69 C 609.73 613.82 610.86 618.04 613.42 621.55 C 618.54 629.46 627.84 634.05 637.15 634.33 C 651.56 635.10 665.24 628.15 675.98 619.04 C 681.81 614.13 687.16 607.18 686.17 599.10 C 685.97 588.99 678.66 581.01 677.31 571.20 C 675.63 560.86 676.65 550.35 677.10 539.95 C 677.70 533.34 677.94 526.66 679.26 520.14 Z" />
<path fill="#000000" opacity="1.00" d=" M 913.78 793.55 C 913.35 791.83 912.20 788.87 914.99 788.78 C 916.60 789.19 916.78 791.15 917.37 792.46 C 921.52 806.21 923.88 820.41 926.69 834.47 C 927.69 840.17 929.66 845.66 930.29 851.43 C 929.50 851.27 927.94 850.97 927.15 850.81 C 925.03 846.51 924.59 841.55 923.41 836.94 C 920.35 822.44 918.36 807.68 913.78 793.55 Z" />
</g>
<g id="Group-000000" fill="#000000">
<path fill="#000000" opacity="1.00" d=" M 820.58 532.93 C 820.61 530.39 822.13 528.33 823.89 526.66 C 830.25 526.66 831.58 535.69 826.87 538.87 C 823.32 540.39 820.06 536.25 820.58 532.93 Z" />
</g>
<g id="Group-000000" fill="#000000">
<path fill="#000000" opacity="1.00" d=" M 841.43 531.63 C 844.54 529.93 847.76 533.12 848.48 536.04 C 849.86 539.24 847.76 544.21 843.85 543.90 C 838.84 542.56 836.48 534.47 841.43 531.63 Z" />
</g>
<g id="Group-000000" fill="#000000">
<path fill="#000000" opacity="1.00" d=" M 840.60 550.57 C 841.64 550.59 842.69 550.62 843.76 550.65 C 843.44 553.08 843.16 555.50 842.88 557.95 C 842.70 556.16 842.35 552.59 842.18 550.80 C 839.00 555.32 844.36 560.90 841.01 565.30 C 840.95 563.94 840.98 562.60 841.09 561.27 C 841.48 558.85 841.25 556.41 840.27 554.16 C 840.35 553.27 840.51 551.47 840.60 550.57 Z" />
<path fill="#000000" opacity="1.00" d=" M 845.25 550.07 C 847.06 551.07 846.16 553.29 846.21 554.95 C 845.75 558.56 845.87 562.29 844.78 565.80 L 843.61 566.45 C 844.81 561.06 845.11 555.57 845.25 550.07 Z" />
<path fill="#000000" opacity="1.00" d=" M 849.88 557.24 C 849.55 555.09 849.29 552.92 849.82 550.80 C 851.22 551.16 852.65 551.56 854.09 551.92 C 855.86 554.65 856.83 558.25 854.43 560.93 C 855.40 557.99 854.66 554.99 853.63 552.19 C 852.56 551.97 851.49 551.75 850.44 551.54 C 851.21 553.40 850.61 555.48 850.60 557.43 C 852.91 558.80 853.58 561.91 852.43 564.25 C 851.99 562.02 851.57 559.79 850.48 557.79 C 847.02 559.15 850.33 563.65 848.25 566.21 C 847.96 563.24 847.89 560.25 847.37 557.30 L 848.84 557.80 L 848.44 555.56 L 849.88 557.24 Z" />
<path fill="#000000" opacity="1.00" d=" M 875.20 698.84 C 877.02 698.15 878.46 700.21 877.50 701.80 C 871.29 719.87 872.38 739.53 876.15 758.00 C 879.12 772.48 882.42 787.12 881.54 801.99 C 880.63 801.99 878.79 801.98 877.87 801.98 C 878.44 790.60 876.89 779.23 874.44 768.14 C 870.90 751.70 867.86 734.77 870.08 717.93 C 871.00 711.42 871.99 704.67 875.20 698.84 Z" />
</g>
<g id="Group-000000" fill="#000000">
<path fill="rgba(0,0,0,0)" opacity="1.00" d=" M 838.35 552.09 C 838.83 552.61 839.79 553.65 840.27 554.16 C 841.25 556.41 841.48 558.85 841.09 561.27 C 840.85 560.53 840.37 559.04 840.13 558.30 L 839.20 558.27 C 839.11 560.06 839.02 561.86 838.94 563.66 L 837.54 563.06 C 837.65 559.39 838.07 555.74 838.35 552.09 Z" />
</g>
<g id="Group-000000" fill="#000000">
<path fill="#000000" opacity="1.00" d=" M 917.14 561.12 C 920.27 558.63 925.32 559.57 927.37 563.01 C 929.31 566.28 929.28 570.31 928.99 574.00 C 928.28 575.03 927.37 575.28 926.27 574.73 C 925.45 571.36 926.22 567.55 924.26 564.51 C 922.84 562.22 919.33 562.93 917.95 564.91 C 915.78 567.72 916.06 571.46 914.98 574.70 C 913.96 574.52 912.94 574.35 911.94 574.17 C 912.61 569.59 912.97 564.03 917.14 561.12 Z" />
</g>
<g id="Group-000000" fill="#000000">
<path fill="rgba(0,0,0,0)" opacity="1.00" d=" M 232.70 575.78 C 239.90 575.66 247.07 574.16 253.58 571.05 C 257.70 589.24 259.40 607.87 261.36 626.38 C 260.36 626.38 258.28 625.65 258.61 627.42 C 259.97 631.95 262.77 636.13 262.85 641.00 C 262.92 645.40 263.03 649.81 262.69 654.21 C 260.65 646.41 258.69 638.60 256.47 630.86 C 256.09 629.13 254.00 624.39 252.47 627.96 C 253.38 634.17 255.16 640.22 256.74 646.28 C 258.14 651.20 259.53 656.24 262.57 660.45 C 262.54 665.36 261.55 670.24 260.68 675.08 C 257.27 675.04 254.70 672.74 251.87 671.21 C 250.36 670.26 248.55 672.86 249.93 673.93 C 252.29 676.80 256.15 677.99 259.68 678.80 C 256.66 688.86 252.18 699.00 244.04 705.97 C 237.33 711.67 228.58 714.73 219.82 714.96 C 219.35 689.28 211.17 663.98 197.54 642.30 C 195.39 641.14 192.81 640.73 191.07 638.90 C 186.43 634.24 184.75 627.36 184.90 620.97 C 185.23 615.12 187.05 608.80 191.92 605.13 C 196.72 601.33 204.84 600.92 208.73 606.26 C 211.33 608.97 211.32 613.01 212.95 616.13 C 219.57 619.37 229.27 617.64 232.48 610.37 C 237.40 599.24 231.52 587.31 232.70 575.78 M 251.19 593.18 C 247.97 595.21 248.44 599.76 248.96 603.03 C 249.24 605.41 251.15 608.68 253.96 607.00 C 256.91 603.74 256.84 598.63 255.25 594.77 C 254.70 593.07 252.77 592.10 251.19 593.18 M 195.42 616.52 C 192.77 618.88 191.46 622.47 191.42 625.98 C 191.27 628.16 193.10 628.36 194.80 628.46 C 195.26 625.60 195.05 622.31 197.01 619.97 C 198.19 618.49 200.81 618.49 201.62 620.34 C 203.31 624.29 203.34 628.68 204.36 632.82 C 205.32 632.64 206.29 632.46 207.26 632.28 C 207.23 627.56 206.75 622.68 204.65 618.39 C 203.14 614.94 198.18 614.10 195.42 616.52 M 245.27 629.73 C 247.28 638.48 248.79 647.35 251.06 656.04 C 251.83 656.06 253.36 656.12 254.13 656.15 C 254.08 650.68 252.19 645.46 251.34 640.11 C 250.15 635.45 249.90 630.40 247.38 626.20 C 246.27 627.08 244.45 628.00 245.27 629.73 M 239.00 630.99 C 238.01 633.28 238.99 635.74 239.38 638.05 C 240.96 644.30 242.05 650.75 244.54 656.73 C 245.80 657.92 248.00 656.85 247.25 655.06 C 245.02 647.06 243.78 638.71 240.90 630.92 C 240.43 630.94 239.48 630.98 239.00 630.99 Z" />
<path fill="rgba(0,0,0,0)" opacity="1.00" d=" M 354.68 746.64 C 365.39 743.89 376.10 741.17 386.78 738.32 C 391.07 758.43 394.75 778.67 398.46 798.90 C 386.63 798.69 374.80 798.31 362.97 798.35 C 360.44 781.07 357.56 763.85 354.68 746.64 Z" />
<path fill="rgba(0,0,0,0)" opacity="1.00" d=" M 435.13 755.22 C 442.73 752.99 451.73 752.16 458.92 755.93 C 458.90 760.64 458.84 765.44 460.47 769.94 C 464.21 781.28 467.57 792.97 467.44 805.02 C 467.22 820.74 466.41 836.44 466.37 852.17 C 452.53 851.95 438.71 851.13 424.88 850.81 C 424.87 838.21 425.04 825.61 425.28 813.02 C 425.57 805.31 425.60 797.55 427.10 789.96 C 428.45 782.87 430.77 776.01 433.27 769.26 C 435.01 764.78 434.45 759.89 435.13 755.22 Z" />
</g>
<g id="Group-000000" fill="#000000">
<path fill="#000000" opacity="1.00" d=" M 842.48 578.42 C 844.40 575.44 847.37 579.44 845.17 581.13 C 840.13 586.15 832.09 588.32 825.38 585.61 C 824.23 584.52 824.16 583.32 825.17 582.00 C 828.45 582.15 831.71 583.56 835.00 582.60 C 837.91 582.09 840.19 580.14 842.48 578.42 Z" />
</g>
<g id="Group-000000" fill="#000000">
<path fill="#000000" opacity="1.00" d=" M 908.03 582.42 C 908.98 582.09 909.94 581.78 910.91 581.47 C 912.24 582.99 912.84 586.48 909.96 586.43 C 907.71 586.64 907.59 583.97 908.03 582.42 Z" />
</g>
<g id="Group-000000" fill="#000000">
<path fill="#000000" opacity="1.00" d=" M 251.19 593.18 C 252.77 592.10 254.70 593.07 255.25 594.77 C 256.84 598.63 256.91 603.74 253.96 607.00 C 251.15 608.68 249.24 605.41 248.96 603.03 C 248.44 599.76 247.97 595.21 251.19 593.18 Z" />
</g>
<g id="Group-000000" fill="#000000">
<path fill="#000000" opacity="1.00" d=" M 239.00 630.99 C 239.48 630.98 240.43 630.94 240.90 630.92 C 243.78 638.71 245.02 647.06 247.25 655.06 C 248.00 656.85 245.80 657.92 244.54 656.73 C 242.05 650.75 240.96 644.30 239.38 638.05 C 238.99 635.74 238.01 633.28 239.00 630.99 Z" />
</g>
<g id="Group-000000" fill="#000000">
<path fill="rgba(0,0,0,0)" opacity="1.00" d=" M 342.55 686.77 C 343.09 686.82 344.18 686.92 344.72 686.97 C 346.90 701.97 347.68 717.24 351.48 731.99 C 352.25 736.08 353.99 739.99 354.19 744.17 C 352.12 745.19 351.83 742.17 351.15 740.94 C 346.13 725.06 344.47 708.39 342.67 691.91 C 342.54 690.19 342.15 688.46 342.55 686.77 Z" />
</g>
<g id="Group-000000" fill="#000000">
<path fill="#000000" opacity="1.00" d=" M 586.13 707.81 C 587.24 706.56 588.02 704.52 590.01 704.61 C 592.56 704.56 595.05 705.35 597.42 706.24 C 595.74 706.93 594.09 707.64 592.39 708.26 C 591.30 708.26 590.21 708.28 589.13 708.32 C 591.28 712.00 595.16 714.08 598.40 716.67 C 601.10 718.80 604.82 720.49 605.22 724.36 C 603.49 724.16 601.73 723.92 600.42 722.72 C 595.64 718.95 590.94 715.02 585.80 711.77 C 583.57 710.80 583.18 714.10 582.56 715.48 C 587.24 720.60 592.78 724.88 598.95 728.07 C 601.07 729.39 604.22 730.16 604.24 733.23 C 599.37 733.15 595.60 729.74 591.58 727.45 C 587.33 724.99 584.08 721.19 579.85 718.70 C 578.93 720.27 577.04 722.45 578.73 724.19 C 584.44 729.01 591.40 731.91 598.18 734.85 C 599.96 734.95 599.72 738.57 597.93 737.86 C 591.86 736.65 586.56 733.10 580.82 730.95 C 579.94 730.69 579.03 730.91 578.16 730.98 C 582.28 737.59 586.93 744.16 593.37 748.71 C 598.66 752.56 604.48 755.62 610.44 758.31 C 620.08 762.67 630.67 764.07 640.91 766.42 C 644.58 767.21 647.55 769.66 650.33 772.06 C 649.00 772.40 647.69 772.73 646.38 773.08 C 644.14 771.43 641.65 770.04 638.89 769.59 C 633.22 768.61 627.68 767.09 622.08 765.87 C 611.46 763.45 601.66 758.35 592.62 752.41 C 585.58 747.82 580.49 740.93 576.04 733.93 C 574.70 732.20 575.33 730.12 576.21 728.36 C 575.88 725.59 575.47 722.79 575.75 720.00 C 575.57 717.64 578.07 716.78 579.53 715.46 C 579.79 713.50 579.35 711.26 580.48 709.55 C 582.09 708.31 584.21 708.19 586.13 707.81 Z" />
</g>
<g id="Group-000000" fill="#000000">
<path fill="rgba(0,0,0,0)" opacity="1.00" d=" M 319.99 709.90 C 319.75 708.38 320.39 707.80 321.92 708.17 C 323.04 710.63 323.35 713.36 323.86 716.00 C 324.79 722.70 326.19 729.45 325.30 736.24 C 323.27 736.91 321.22 737.53 319.09 737.77 C 308.69 739.01 298.29 740.34 287.82 740.75 C 285.81 732.63 285.45 724.22 284.58 715.93 C 284.37 714.40 284.15 710.82 286.64 712.45 C 288.18 720.90 288.39 729.56 290.00 738.01 C 301.02 737.33 311.98 736.03 322.91 734.48 C 322.96 726.19 321.38 718.03 319.99 709.90 Z" />
</g>
<g id="Group-000000" fill="#000000">
<path fill="#000000" opacity="1.00" d=" M 965.06 729.07 C 965.79 729.10 967.24 729.17 967.96 729.20 C 967.84 734.20 966.19 738.97 965.43 743.89 C 961.35 767.40 959.06 791.21 957.82 815.03 C 958.05 816.51 956.97 819.40 959.14 819.76 C 971.68 822.09 984.51 821.82 997.13 823.58 C 1006.21 824.42 1015.11 826.50 1024.00 828.49 L 1024.00 832.22 C 1005.50 827.08 986.28 825.84 967.22 824.42 C 965.99 838.23 964.41 852.01 963.35 865.83 C 963.13 868.85 959.58 870.20 956.96 869.82 C 953.02 869.33 949.30 867.81 945.73 866.18 C 930.08 858.82 916.54 847.84 901.41 839.54 C 895.30 836.10 889.01 832.97 882.57 830.18 C 883.81 829.44 885.06 828.72 886.33 828.01 C 895.45 832.13 904.37 836.78 912.81 842.18 C 922.98 848.38 932.47 855.65 943.12 861.05 C 948.32 863.50 953.68 866.70 959.63 866.29 C 960.85 852.20 962.40 838.14 963.83 824.07 C 960.48 823.65 955.88 823.53 954.32 819.90 C 953.68 816.26 954.36 812.56 954.55 808.91 C 955.65 791.95 957.17 774.99 959.56 758.16 C 961.04 748.40 962.39 738.59 965.06 729.07 Z" />
</g>
<g id="Group-000000" fill="#000000">
<path fill="rgba(0,0,0,0)" opacity="1.00" d=" M 564.82 742.82 C 567.09 739.82 567.75 735.97 569.83 732.85 C 568.80 739.86 569.00 746.96 568.42 754.01 C 567.85 765.60 567.09 777.17 566.79 788.77 C 553.49 787.54 540.15 786.56 526.79 786.63 C 536.01 771.11 544.73 755.27 553.46 739.47 C 556.03 740.83 558.38 742.61 561.00 743.90 C 562.36 744.19 564.08 744.25 564.82 742.82 Z" />
<path fill="rgba(0,0,0,0)" opacity="1.00" d=" M 357.24 801.55 C 378.79 802.24 400.36 802.34 421.92 802.60 C 421.44 810.67 421.50 818.77 421.38 826.86 C 411.64 827.15 401.89 825.99 392.16 826.65 C 392.19 827.42 392.23 828.97 392.25 829.75 C 401.94 830.60 411.68 829.98 421.38 830.53 C 421.09 844.65 421.37 858.77 421.16 872.88 C 418.99 872.66 416.81 872.73 414.65 872.94 C 405.40 874.14 396.13 875.63 387.17 878.23 C 389.49 875.97 391.12 872.56 389.59 869.40 C 388.41 867.05 385.35 866.99 383.13 867.50 C 375.22 869.10 368.03 873.02 361.16 877.10 C 360.69 861.24 359.80 845.38 359.10 829.53 C 368.68 829.75 378.27 830.07 387.84 829.68 C 387.74 828.64 387.61 827.62 387.44 826.61 C 377.97 825.76 368.41 826.44 358.92 825.77 C 358.03 817.72 357.98 809.61 357.24 801.55 M 360.07 803.95 C 360.07 810.45 360.72 816.94 361.82 823.34 C 363.33 823.11 366.51 823.59 365.82 821.08 C 364.68 815.76 364.27 810.35 363.84 804.96 C 363.62 803.20 361.22 804.20 360.07 803.95 Z" />
</g>
<g id="Group-000000" fill="#000000">
<path fill="rgba(0,0,0,0)" opacity="1.00" d=" M 435.95 741.85 C 443.54 740.85 451.26 741.15 458.85 741.99 C 458.92 745.18 458.92 748.39 459.07 751.59 C 451.25 748.85 442.39 748.68 434.59 751.50 C 434.84 748.25 435.07 744.99 435.95 741.85 Z" />
<path fill="rgba(0,0,0,0)" opacity="1.00" d=" M 173.99 874.01 C 174.59 872.69 176.03 872.14 177.15 871.39 C 180.08 876.94 182.44 882.77 184.89 888.54 C 178.57 888.55 172.24 888.49 165.92 888.50 C 168.86 883.81 171.38 878.88 173.99 874.01 Z" />
</g>
<g id="Group-000000" fill="#000000">
<path fill="#000000" opacity="1.00" d=" M 620.77 776.66 C 622.89 773.28 627.37 772.88 630.95 772.24 C 634.39 772.22 636.14 775.50 637.41 778.20 C 638.93 777.46 640.46 776.73 641.99 776.01 C 643.60 777.80 645.45 779.36 647.13 781.09 C 647.59 783.97 647.48 786.98 647.02 789.87 C 646.13 792.17 643.72 793.65 643.25 796.20 C 643.75 795.70 644.73 794.71 645.22 794.21 C 647.54 793.25 650.44 794.18 651.67 796.41 C 652.64 798.54 651.46 800.78 650.70 802.77 C 651.89 803.21 653.09 803.67 654.29 804.14 C 654.37 806.20 654.71 808.51 653.32 810.27 C 647.19 818.82 637.65 824.08 628.00 827.74 C 627.16 826.80 626.34 825.86 625.52 824.94 C 632.99 822.18 640.35 818.67 646.28 813.25 C 648.60 811.30 650.67 808.99 651.79 806.14 C 647.37 807.25 643.63 810.24 639.04 810.79 C 636.50 811.07 633.26 811.81 631.53 809.38 C 635.59 807.67 640.47 807.95 643.91 804.85 C 646.54 803.02 647.59 799.86 648.18 796.85 C 639.76 798.07 633.60 806.01 624.72 805.15 C 629.38 801.63 636.04 800.30 638.89 794.73 C 640.56 791.37 644.46 789.44 645.14 785.57 C 639.67 788.18 634.89 791.95 629.60 794.85 C 627.62 795.28 625.56 794.98 623.57 794.96 C 629.65 790.85 636.58 787.90 641.99 782.87 C 643.50 781.37 640.69 779.15 639.18 780.28 C 633.50 783.05 628.49 786.97 623.04 790.12 C 621.97 790.33 619.44 792.28 619.48 790.09 C 623.89 786.09 629.04 782.99 633.27 778.74 C 633.17 778.04 632.97 776.63 632.88 775.92 C 631.28 775.88 629.60 775.49 628.08 776.14 C 625.79 777.40 624.03 779.83 621.25 780.00 C 620.17 779.12 619.63 777.74 620.77 776.66 Z" />
</g>
<g id="Group-000000" fill="#000000">
<path fill="#000000" opacity="1.00" d=" M 360.07 803.95 C 361.22 804.20 363.62 803.20 363.84 804.96 C 364.27 810.35 364.68 815.76 365.82 821.08 C 366.51 823.59 363.33 823.11 361.82 823.34 C 360.72 816.94 360.07 810.45 360.07 803.95 Z" />
</g>
<g id="Group-000000" fill="#000000">
<path fill="rgba(0,0,0,0)" opacity="1.00" d=" M 791.26 807.98 C 797.31 807.66 803.28 808.81 809.13 810.27 C 806.38 815.41 804.69 821.06 804.60 826.92 C 800.87 826.39 797.11 825.99 793.34 826.02 C 790.30 825.98 787.27 825.87 784.24 825.72 C 784.18 823.51 784.18 821.32 784.23 819.13 C 791.05 818.60 797.78 820.00 804.57 820.22 C 801.14 815.37 794.28 814.76 790.78 809.91 C 790.90 809.42 791.14 808.46 791.26 807.98 Z" />
<path fill="rgba(0,0,0,0)" opacity="1.00" d=" M 164.06 892.17 C 171.60 892.12 179.14 892.14 186.68 892.14 C 189.01 897.22 191.49 902.22 194.22 907.10 C 181.56 907.14 168.90 907.12 156.25 907.01 C 159.30 902.31 161.37 897.07 164.06 892.17 Z" />
</g>
<g id="Group-000000" fill="#000000">
<path fill="rgba(0,0,0,0)" opacity="1.00" d=" M 780.77 824.41 C 781.64 826.24 782.64 828.07 782.90 830.12 C 780.62 830.01 778.34 829.94 776.08 829.77 C 777.87 828.19 779.36 826.33 780.77 824.41 Z" />
<path fill="rgba(0,0,0,0)" opacity="1.00" d=" M 260.51 911.82 C 261.14 909.62 263.42 910.42 265.09 910.44 C 264.02 911.91 262.11 911.72 260.51 911.82 Z" />
</g>
<g id="Group-000000" fill="#000000">
<path fill="rgba(0,0,0,0)" opacity="1.00" d=" M 786.81 829.17 C 789.76 829.28 792.71 829.48 795.67 829.66 C 798.52 830.05 801.40 830.22 804.21 830.92 C 804.57 837.53 806.46 844.03 810.24 849.52 C 805.13 847.66 800.05 845.65 795.31 842.98 C 793.97 842.18 792.68 841.34 791.40 840.48 C 794.03 840.37 796.67 840.19 799.29 839.78 C 797.67 835.98 792.83 836.13 789.71 834.20 C 787.65 833.39 787.41 830.98 786.81 829.17 Z" />
</g>
<g id="Group-000000" fill="#000000">
<path fill="rgba(0,0,0,0)" opacity="1.00" d=" M 1019.87 888.59 C 1021.58 882.64 1022.71 876.54 1024.00 870.50 L 1024.00 888.27 C 1022.61 888.37 1021.24 888.47 1019.87 888.59 Z" />
</g>
<g id="Group-000000" fill="#000000">
<path fill="#000000" opacity="1.00" d=" M 414.65 872.94 C 416.81 872.73 418.99 872.66 421.16 872.88 C 422.42 873.00 423.67 873.17 424.93 873.37 C 426.06 874.08 427.28 874.79 428.04 875.94 C 428.66 877.95 427.60 879.90 427.03 881.79 C 429.09 882.04 431.15 882.32 433.19 882.75 C 432.47 883.75 431.77 884.77 431.06 885.79 C 421.87 884.74 412.77 886.67 403.96 889.08 C 403.34 887.50 403.74 886.43 405.15 885.87 C 410.47 883.69 416.08 882.33 421.46 880.34 C 422.99 879.91 423.74 878.44 424.67 877.30 C 420.50 875.84 416.07 876.18 411.77 876.75 C 414.14 874.82 417.25 874.85 420.13 874.57 C 418.30 874.00 416.49 873.42 414.65 872.94 Z" />
</g>
<g id="Group-000000" fill="#000000">
<path fill="#000000" opacity="1.00" d=" M 433.19 882.75 C 435.42 883.58 435.59 885.94 435.83 887.98 C 436.29 888.04 437.23 888.15 437.70 888.21 C 440.12 888.62 442.54 889.10 445.01 889.13 C 455.38 889.06 465.76 888.88 476.12 889.41 C 473.07 889.86 470.02 890.22 466.97 890.53 C 471.13 890.52 475.31 890.77 479.41 891.59 C 465.38 891.84 451.34 891.64 437.31 891.94 C 437.19 891.36 437.06 890.80 436.94 890.24 C 435.68 889.45 434.44 888.61 433.24 887.75 C 432.18 889.46 431.57 891.87 429.43 892.52 C 425.07 893.90 420.51 894.62 415.99 895.28 C 414.20 895.74 412.70 894.52 411.22 893.78 C 418.30 891.53 426.52 891.74 432.58 887.01 C 432.20 886.70 431.44 886.10 431.06 885.79 C 431.77 884.77 432.47 883.75 433.19 882.75 Z" />
</g>
<g id="Group-000000" fill="#000000">
<path fill="#000000" opacity="1.00" d=" M 429.43 892.52 C 431.57 891.87 432.18 889.46 433.24 887.75 C 434.44 888.61 435.68 889.45 436.94 890.24 C 437.06 890.80 437.19 891.36 437.31 891.94 C 438.85 894.95 436.37 897.11 434.24 898.82 C 435.26 899.58 436.28 900.34 437.32 901.12 C 437.49 903.65 436.31 905.69 434.27 907.12 C 597.00 907.56 759.74 907.12 922.47 907.26 C 925.62 908.45 929.74 906.50 932.05 909.56 C 931.55 909.78 930.55 910.22 930.06 910.44 C 876.05 910.74 822.02 910.42 768.01 910.54 C 656.28 910.61 544.55 910.36 432.83 910.71 C 431.91 912.36 431.08 914.17 429.53 915.35 C 422.62 921.09 413.94 924.09 405.39 926.44 C 405.41 925.24 405.43 924.06 405.45 922.88 C 413.86 920.72 421.93 917.05 428.70 911.56 C 423.77 912.31 419.10 914.61 414.04 914.36 C 413.75 913.73 413.17 912.48 412.89 911.85 C 419.52 909.35 426.92 908.82 433.08 905.08 C 433.39 903.58 433.35 900.81 431.05 902.02 C 424.48 904.30 417.48 907.09 410.43 905.38 C 418.15 901.09 429.00 901.45 434.20 893.31 C 425.58 894.35 417.38 897.79 408.67 898.13 C 408.70 896.86 408.74 895.61 408.79 894.36 C 409.40 894.22 410.61 893.93 411.22 893.78 C 412.70 894.52 414.20 895.74 415.99 895.28 C 420.51 894.62 425.07 893.90 429.43 892.52 Z" />
</g>
<g id="Group-000000" fill="#000000">
<path fill="#000000" opacity="1.00" d=" M 437.70 888.21 C 564.72 888.37 691.74 888.19 818.76 888.30 C 820.21 888.78 821.65 889.33 823.10 889.89 C 822.38 890.48 821.68 891.08 820.98 891.69 C 707.12 891.53 593.26 891.69 479.41 891.59 C 475.31 890.77 471.13 890.52 466.97 890.53 C 470.02 890.22 473.07 889.86 476.12 889.41 C 465.76 888.88 455.38 889.06 445.01 889.13 C 442.54 889.10 440.12 888.62 437.70 888.21 Z" />
</g>
<g id="Group-000000" fill="#000000">
<path fill="rgba(0,0,0,0)" opacity="1.00" d=" M 251.61 891.77 C 270.42 891.81 289.22 891.69 308.02 891.87 C 314.74 891.98 321.48 891.60 328.17 892.44 C 314.95 895.68 302.02 899.95 288.95 903.74 C 284.03 905.11 279.21 907.25 274.02 907.26 C 269.21 907.19 264.39 906.96 259.58 907.26 C 256.53 902.31 254.27 896.93 251.61 891.77 Z" />
</g>
<g id="Group-000000" fill="#000000">
<path fill="rgba(0,0,0,0)" opacity="1.00" d=" M 437.31 891.94 C 451.34 891.64 465.38 891.84 479.41 891.59 C 593.26 891.69 707.12 891.53 820.98 891.69 C 851.07 891.91 881.16 891.58 911.25 891.89 C 915.95 897.22 920.91 902.32 926.23 907.03 C 925.29 907.09 923.41 907.20 922.47 907.26 C 759.74 907.12 597.00 907.56 434.27 907.12 C 436.31 905.69 437.49 903.65 437.32 901.12 C 436.28 900.34 435.26 899.58 434.24 898.82 C 436.37 897.11 438.85 894.95 437.31 891.94 Z" />
</g>
<g id="Group-000000" fill="#000000">
<path fill="rgba(0,0,0,0)" opacity="1.00" d=" M 1019.02 892.03 C 1020.67 892.20 1022.33 892.36 1024.00 892.61 L 1024.00 906.96 C 1020.86 906.97 1017.73 906.96 1014.61 906.97 C 1016.28 902.05 1017.71 897.06 1019.02 892.03 Z" />
</g>
</g></svg>